<svg width="46" height="45" viewBox="0 0 46 45" fill="none" xmlns="http://www.w3.org/2000/svg">
<path d="M38 13.125H8C5.92893 13.125 4.25 14.8039 4.25 16.875V35.625C4.25 37.6961 5.92893 39.375 8 39.375H38C40.0711 39.375 41.75 37.6961 41.75 35.625V16.875C41.75 14.8039 40.0711 13.125 38 13.125Z" stroke="white" stroke-width="2" stroke-linecap="round" stroke-linejoin="round"/>
<path d="M30.5 39.375V9.375C30.5 8.38044 30.1049 7.42661 29.4017 6.72335C28.6984 6.02009 27.7446 5.625 26.75 5.625H19.25C18.2554 5.625 17.3016 6.02009 16.5984 6.72335C15.8951 7.42661 15.5 8.38044 15.5 9.375V39.375" stroke="white" stroke-width="2" stroke-linecap="round" stroke-linejoin="round"/>
</svg>
