<svg width="56" height="69" viewBox="0 0 56 69" fill="none" xmlns="http://www.w3.org/2000/svg">
<path d="M10.4822 16.875L27.3572 3.75L44.2322 16.875V37.5C44.2322 38.4946 43.8371 39.4484 43.1338 40.1516C42.4306 40.8549 41.4767 41.25 40.4822 41.25H14.2322C13.2376 41.25 12.2838 40.8549 11.5805 40.1516C10.8773 39.4484 10.4822 38.4946 10.4822 37.5V16.875Z" stroke="white" stroke-width="2" stroke-linecap="round" stroke-linejoin="round"/>
<path d="M21.7322 41.25V22.5H32.9822V41.25" stroke="white" stroke-width="2" stroke-linecap="round" stroke-linejoin="round"/>
<path d="M9.4106 68V57.8182H10.9468V62.2429H16.0228V57.8182H17.564V68H16.0228V63.5604H10.9468V68H9.4106ZM22.8985 68.1541C22.1826 68.1541 21.5579 67.9901 21.0242 67.6619C20.4906 67.3338 20.0763 66.8748 19.7813 66.2848C19.4864 65.6948 19.3389 65.0054 19.3389 64.2166C19.3389 63.4245 19.4864 62.7318 19.7813 62.1385C20.0763 61.5452 20.4906 61.0845 21.0242 60.7564C21.5579 60.4283 22.1826 60.2642 22.8985 60.2642C23.6144 60.2642 24.2392 60.4283 24.7728 60.7564C25.3064 61.0845 25.7207 61.5452 26.0157 62.1385C26.3107 62.7318 26.4582 63.4245 26.4582 64.2166C26.4582 65.0054 26.3107 65.6948 26.0157 66.2848C25.7207 66.8748 25.3064 67.3338 24.7728 67.6619C24.2392 67.9901 23.6144 68.1541 22.8985 68.1541ZM22.9035 66.9062C23.3675 66.9062 23.752 66.7836 24.0569 66.5384C24.3618 66.2931 24.5872 65.9666 24.733 65.5589C24.8822 65.1513 24.9568 64.7022 24.9568 64.2116C24.9568 63.7244 24.8822 63.277 24.733 62.8693C24.5872 62.4583 24.3618 62.1286 24.0569 61.88C23.752 61.6314 23.3675 61.5071 22.9035 61.5071C22.4362 61.5071 22.0484 61.6314 21.7401 61.88C21.4352 62.1286 21.2082 62.4583 21.059 62.8693C20.9132 63.277 20.8403 63.7244 20.8403 64.2116C20.8403 64.7022 20.9132 65.1513 21.059 65.5589C21.2082 65.9666 21.4352 66.2931 21.7401 66.5384C22.0484 66.7836 22.4362 66.9062 22.9035 66.9062ZM28.1175 68V60.3636H29.5443V61.6065H29.6388C29.7979 61.1856 30.058 60.8575 30.4193 60.6222C30.7806 60.3835 31.2131 60.2642 31.7169 60.2642C32.2273 60.2642 32.6549 60.3835 32.9996 60.6222C33.3476 60.8608 33.6044 61.1889 33.7702 61.6065H33.8497C34.032 61.1989 34.322 60.8741 34.7197 60.6321C35.1175 60.3868 35.5914 60.2642 36.1416 60.2642C36.8343 60.2642 37.3994 60.4813 37.8369 60.9155C38.2777 61.3497 38.4981 62.0043 38.4981 62.8793V68H37.0116V63.0185C37.0116 62.5014 36.8708 62.1269 36.589 61.8949C36.3073 61.6629 35.9709 61.5469 35.5798 61.5469C35.0959 61.5469 34.7197 61.696 34.4513 61.9943C34.1828 62.2893 34.0486 62.6688 34.0486 63.1328V68H32.567V62.924C32.567 62.5097 32.4378 62.1766 32.1792 61.9247C31.9207 61.6728 31.5843 61.5469 31.17 61.5469C30.8883 61.5469 30.6281 61.6214 30.3895 61.7706C30.1541 61.9164 29.9636 62.1203 29.8177 62.3821C29.6752 62.6439 29.604 62.9472 29.604 63.2919V68H28.1175ZM43.7817 68.1541C43.0293 68.1541 42.3814 67.9934 41.8378 67.6719C41.2976 67.3471 40.8799 66.8913 40.585 66.3047C40.2933 65.7147 40.1475 65.0237 40.1475 64.2315C40.1475 63.4493 40.2933 62.7599 40.585 62.1634C40.8799 61.5668 41.2909 61.1011 41.8179 60.7663C42.3482 60.4316 42.968 60.2642 43.6773 60.2642C44.1082 60.2642 44.5258 60.3355 44.9301 60.478C45.3345 60.6205 45.6974 60.8442 46.0189 61.1491C46.3404 61.4541 46.594 61.8501 46.7796 62.3374C46.9652 62.8213 47.058 63.4096 47.058 64.1023V64.6293H40.9877V63.5156H45.6013C45.6013 63.1245 45.5218 62.7782 45.3627 62.4766C45.2036 62.1716 44.9798 61.9313 44.6915 61.7557C44.4065 61.58 44.0717 61.4922 43.6872 61.4922C43.2696 61.4922 42.905 61.5949 42.5935 61.8004C42.2852 62.0026 42.0466 62.2678 41.8776 62.5959C41.7119 62.9207 41.629 63.2737 41.629 63.6548V64.5249C41.629 65.0353 41.7185 65.4695 41.8975 65.8274C42.0798 66.1854 42.3333 66.4588 42.6581 66.6477C42.9829 66.8333 43.3624 66.9261 43.7966 66.9261C44.0783 66.9261 44.3352 66.8864 44.5672 66.8068C44.7992 66.724 44.9997 66.6013 45.1688 66.4389C45.3378 66.2765 45.4671 66.076 45.5566 65.8374L46.9635 66.0909C46.8508 66.5052 46.6486 66.8681 46.357 67.1797C46.0686 67.4879 45.7057 67.7282 45.2682 67.9006C44.834 68.0696 44.3385 68.1541 43.7817 68.1541Z" fill="white"/>
</svg>
