<svg width="212" height="218" viewBox="0 0 212 218" fill="none" xmlns="http://www.w3.org/2000/svg">
<g filter="url(#filter0_f_20_1879)">
<path d="M117.943 88.8686L89.299 108.562C87.8756 109.54 88.5436 111.841 90.2509 111.841H96.6784C97.9665 111.841 98.7962 113.25 98.2154 114.441L92.0194 127.078C91.2159 128.717 93.0324 130.393 94.5082 129.379L123.152 109.685C124.576 108.707 123.908 106.406 122.201 106.406H115.773C114.485 106.406 113.655 104.997 114.236 103.806L120.432 91.1694C121.236 89.5298 119.419 87.854 117.943 88.8686Z" fill="url(#paint0_linear_20_1879)"/>
</g>
<path d="M117.943 88.8686L89.299 108.562C87.8756 109.54 88.5436 111.841 90.2509 111.841H96.6784C97.9665 111.841 98.7962 113.25 98.2154 114.441L92.0194 127.078C91.2159 128.717 93.0324 130.393 94.5082 129.379L123.152 109.685C124.576 108.707 123.908 106.406 122.201 106.406H115.773C114.485 106.406 113.655 104.997 114.236 103.806L120.432 91.1694C121.236 89.5298 119.419 87.854 117.943 88.8686Z" fill="url(#paint1_linear_20_1879)"/>
<g filter="url(#filter1_b_20_1879)">
<path d="M129.358 79.8222H128.354C127.154 68.1165 117.609 59 106.008 59C96.1044 59 87.707 65.645 84.7086 74.8656C76.5163 75.2911 70 82.3118 70 90.9122C70 98.7658 75.4339 105.298 82.6092 106.701C83.469 106.886 84.3594 106.982 85.2759 106.982H129.358C136.59 106.982 142.452 100.902 142.452 93.4018C142.452 85.9013 136.59 79.8222 129.358 79.8222Z" fill="url(#paint2_linear_20_1879)"/>
<path d="M127.359 79.9242L127.451 80.8222H128.354H129.358C136.004 80.8222 141.452 86.419 141.452 93.4018C141.452 100.385 136.004 105.982 129.358 105.982H85.2759C84.4289 105.982 83.6093 105.894 82.8202 105.723L82.8107 105.721L82.8011 105.719C76.1104 104.411 71 98.3032 71 90.9122C71 82.8149 77.128 76.2607 84.7604 75.8642L85.4469 75.8286L85.6595 75.1748C88.5346 66.3337 96.5707 60 106.008 60C117.061 60 126.208 68.6934 127.359 79.9242Z" stroke="url(#paint3_linear_20_1879)" stroke-width="2"/>
</g>
<defs>
<filter id="filter0_f_20_1879" x="0.52449" y="0.560059" width="211.402" height="217.127" filterUnits="userSpaceOnUse" color-interpolation-filters="sRGB">
<feFlood flood-opacity="0" result="BackgroundImageFix"/>
<feBlend mode="normal" in="SourceGraphic" in2="BackgroundImageFix" result="shape"/>
<feGaussianBlur stdDeviation="44" result="effect1_foregroundBlur_20_1879"/>
</filter>
<filter id="filter1_b_20_1879" x="52" y="41" width="108.452" height="83.9814" filterUnits="userSpaceOnUse" color-interpolation-filters="sRGB">
<feFlood flood-opacity="0" result="BackgroundImageFix"/>
<feGaussianBlur in="BackgroundImageFix" stdDeviation="9"/>
<feComposite in2="SourceAlpha" operator="in" result="effect1_backgroundBlur_20_1879"/>
<feBlend mode="normal" in="SourceGraphic" in2="effect1_backgroundBlur_20_1879" result="shape"/>
</filter>
<linearGradient id="paint0_linear_20_1879" x1="95.8706" y1="128.695" x2="120.087" y2="86.1607" gradientUnits="userSpaceOnUse">
<stop stop-color="#FFDC4A"/>
<stop offset="1" stop-color="#F37322"/>
</linearGradient>
<linearGradient id="paint1_linear_20_1879" x1="95.8706" y1="128.695" x2="120.087" y2="86.1607" gradientUnits="userSpaceOnUse">
<stop stop-color="#FFDC4A"/>
<stop offset="1" stop-color="#F37322"/>
</linearGradient>
<linearGradient id="paint2_linear_20_1879" x1="74.0903" y1="104.273" x2="113.279" y2="45.098" gradientUnits="userSpaceOnUse">
<stop stop-color="white" stop-opacity="0.2"/>
<stop offset="1" stop-color="white" stop-opacity="0.49"/>
</linearGradient>
<linearGradient id="paint3_linear_20_1879" x1="75.1143" y1="62.7737" x2="111.103" y2="120.879" gradientUnits="userSpaceOnUse">
<stop stop-color="white"/>
<stop offset="1" stop-color="white" stop-opacity="0"/>
</linearGradient>
</defs>
</svg>
