<svg width="209" height="210" viewBox="0 0 209 210" fill="none" xmlns="http://www.w3.org/2000/svg">
<rect x="50.408" y="156.597" width="137.061" height="37.379" transform="rotate(-21.9845 50.408 156.597)" fill="#1F9D96"/>
<g filter="url(#filter0_bii_7_854)">
<rect y="59.4724" width="158.866" height="162.331" rx="43.3544" transform="rotate(-21.9845 0 59.4724)" fill="white" fill-opacity="0.02"/>
</g>
<g filter="url(#filter1_bi_7_854)">
<path d="M54.055 96.3227L36.7776 146.299C36.2646 147.783 36.3058 149.403 36.8936 150.859L44.3398 169.303C53.3034 191.506 78.5687 202.239 100.772 193.275L167.201 166.457C189.404 157.493 200.136 132.228 191.173 110.025L183.704 91.5245C183.13 90.1025 182.072 88.9291 180.716 88.2116L147.406 70.5767C141.635 67.5217 134.494 70.2247 132.192 76.3348L119.948 108.837C118.566 112.506 114.276 114.127 110.813 112.288L69.3813 90.2911C63.5042 87.1707 56.2292 90.0338 54.055 96.3227Z" fill="white" fill-opacity="0.02"/>
</g>
<g filter="url(#filter2_f_7_854)">
<ellipse cx="102.484" cy="66.4705" rx="8.30673" ry="8.54376" transform="rotate(-21.9845 102.484 66.4705)" fill="#C4C4C4"/>
</g>
<defs>
<filter id="filter0_bii_7_854" x="-173.358" y="-173.358" width="554.8" height="556.716" filterUnits="userSpaceOnUse" color-interpolation-filters="sRGB">
<feFlood flood-opacity="0" result="BackgroundImageFix"/>
<feGaussianBlur in="BackgroundImageFix" stdDeviation="93.212"/>
<feComposite in2="SourceAlpha" operator="in" result="effect1_backgroundBlur_7_854"/>
<feBlend mode="normal" in="SourceGraphic" in2="effect1_backgroundBlur_7_854" result="shape"/>
<feColorMatrix in="SourceAlpha" type="matrix" values="0 0 0 0 0 0 0 0 0 0 0 0 0 0 0 0 0 0 127 0" result="hardAlpha"/>
<feOffset dy="8.67088"/>
<feGaussianBlur stdDeviation="4.33544"/>
<feComposite in2="hardAlpha" operator="arithmetic" k2="-1" k3="1"/>
<feColorMatrix type="matrix" values="0 0 0 0 1 0 0 0 0 1 0 0 0 0 1 0 0 0 0.15 0"/>
<feBlend mode="normal" in2="shape" result="effect2_innerShadow_7_854"/>
<feColorMatrix in="SourceAlpha" type="matrix" values="0 0 0 0 0 0 0 0 0 0 0 0 0 0 0 0 0 0 127 0" result="hardAlpha"/>
<feOffset/>
<feGaussianBlur stdDeviation="73.7025"/>
<feComposite in2="hardAlpha" operator="arithmetic" k2="-1" k3="1"/>
<feColorMatrix type="matrix" values="0 0 0 0 1 0 0 0 0 1 0 0 0 0 1 0 0 0 0.05 0"/>
<feBlend mode="normal" in2="effect2_innerShadow_7_854" result="effect3_innerShadow_7_854"/>
</filter>
<filter id="filter1_bi_7_854" x="-154.339" y="-121.446" width="539.435" height="508.645" filterUnits="userSpaceOnUse" color-interpolation-filters="sRGB">
<feFlood flood-opacity="0" result="BackgroundImageFix"/>
<feGaussianBlur in="BackgroundImageFix" stdDeviation="95.3797"/>
<feComposite in2="SourceAlpha" operator="in" result="effect1_backgroundBlur_7_854"/>
<feBlend mode="normal" in="SourceGraphic" in2="effect1_backgroundBlur_7_854" result="shape"/>
<feColorMatrix in="SourceAlpha" type="matrix" values="0 0 0 0 0 0 0 0 0 0 0 0 0 0 0 0 0 0 127 0" result="hardAlpha"/>
<feOffset dy="4.33544"/>
<feGaussianBlur stdDeviation="2.16772"/>
<feComposite in2="hardAlpha" operator="arithmetic" k2="-1" k3="1"/>
<feColorMatrix type="matrix" values="0 0 0 0 1 0 0 0 0 1 0 0 0 0 1 0 0 0 0.3 0"/>
<feBlend mode="normal" in2="shape" result="effect2_innerShadow_7_854"/>
</filter>
<filter id="filter2_f_7_854" x="91.9739" y="55.7896" width="21.0205" height="21.3619" filterUnits="userSpaceOnUse" color-interpolation-filters="sRGB">
<feFlood flood-opacity="0" result="BackgroundImageFix"/>
<feBlend mode="normal" in="SourceGraphic" in2="BackgroundImageFix" result="shape"/>
<feGaussianBlur stdDeviation="1.08386" result="effect1_foregroundBlur_7_854"/>
</filter>
</defs>
</svg>
