<svg width="1499" height="1067" viewBox="0 0 1499 1067" fill="none" xmlns="http://www.w3.org/2000/svg">
<rect width="1499" height="1067" fill="#F5F5F5"/>
<path d="M441.048 177.852V222.585V267.318H352.622M528.954 177.852V267.318H617.379V355.223" stroke="url(#paint0_linear_0_1)" stroke-opacity="0.4"/>
<path d="M529.475 798.912V843.645V888.377H441.049M617.38 798.912V888.377H705.806V976.283" stroke="url(#paint1_linear_0_1)" stroke-opacity="0.5"/>
<path d="M969.524 444.169V488.902V533.635H881.098M1057.43 444.169V533.635H1145.86V621.54" stroke="url(#paint2_linear_0_1)" stroke-opacity="0.5"/>
<path d="M793.707 444.689H706.321L705.801 533.114L793.707 533.634V444.689Z" fill="url(#paint3_linear_0_1)" fill-opacity="0.04" stroke="url(#paint4_linear_0_1)" stroke-opacity="0.53"/>
<path d="M610.28 338.653H519.963V429.702H610.28V338.653Z" fill="url(#paint5_linear_0_1)" fill-opacity="0.02"/>
<path d="M1234.95 266.179H1144.63V357.228H1234.95V266.179Z" fill="url(#paint6_linear_0_1)" fill-opacity="0.03"/>
<path d="M89.0588 1H1V89.7725M89.0588 1V89.7725M89.0588 1H177.118M89.0588 89.7725H1M89.0588 89.7725H177.118M89.0588 89.7725V178.545M1 89.7725V178.545M177.118 1V89.7725M177.118 1H265.176M177.118 89.7725H265.176M177.118 89.7725V178.545M265.176 1V89.7725M265.176 1H353.235M265.176 89.7725H353.235M265.176 89.7725V178.545M353.235 1V89.7725M353.235 1H441.294M353.235 89.7725H441.294M353.235 89.7725V178.545M441.294 1V89.7725M441.294 1H529.353M441.294 89.7725H529.353M441.294 89.7725V178.545M529.353 1V89.7725M529.353 1H617.412M529.353 89.7725H617.412M529.353 89.7725V178.545M617.412 1V89.7725M617.412 1H705.471M617.412 89.7725H705.471M617.412 89.7725V178.545M705.471 1V89.7725M705.471 1H793.529M705.471 89.7725H793.529M705.471 89.7725V178.545M793.529 1V89.7725M793.529 1H881.588M793.529 89.7725H881.588M793.529 89.7725V178.545M881.588 1V89.7725M881.588 1H969.647M881.588 89.7725H969.647M881.588 89.7725V178.545M969.647 1V89.7725M969.647 1H1057.71M969.647 89.7725H1057.71M969.647 89.7725V178.545M1057.71 1V89.7725M1057.71 1H1145.76M1057.71 89.7725H1145.76M1057.71 89.7725V178.545M1145.76 1V89.7725M1145.76 1H1233.82M1145.76 89.7725H1233.82M1145.76 89.7725V178.545M1233.82 1V89.7725M1233.82 1H1321.88M1233.82 89.7725H1321.88M1233.82 89.7725V178.545M1321.88 1V89.7725M1321.88 1H1409.94M1321.88 89.7725H1409.94M1321.88 89.7725V178.545M1409.94 1V89.7725M1409.94 1H1498V89.7725M1409.94 89.7725H1498M1409.94 89.7725V178.545M1498 89.7725V178.545M89.0588 178.545H1M89.0588 178.545H177.118M89.0588 178.545V267.317M1 178.545V267.317M177.118 178.545H265.176M177.118 178.545V267.317M265.176 178.545H353.235M265.176 178.545V267.317M353.235 178.545H441.294M353.235 178.545V267.317M441.294 178.545H529.353M441.294 178.545V267.317M529.353 178.545H617.412M529.353 178.545V267.317M617.412 178.545H705.471M617.412 178.545V267.317M705.471 178.545H793.529M705.471 178.545V267.317M793.529 178.545H881.588M793.529 178.545V267.317M881.588 178.545H969.647M881.588 178.545V267.317M969.647 178.545H1057.71M969.647 178.545V267.317M1057.71 178.545H1145.76M1057.71 178.545V267.317M1145.76 178.545H1233.82M1145.76 178.545V267.317M1233.82 178.545H1321.88M1233.82 178.545V267.317M1321.88 178.545H1409.94M1321.88 178.545V267.317M1409.94 178.545H1498M1409.94 178.545V267.317M1498 178.545V267.317M89.0588 267.317H1M89.0588 267.317H177.118M89.0588 267.317V356.09M1 267.317V356.09M177.118 267.317H265.176M177.118 267.317V356.09M265.176 267.317H353.235M265.176 267.317V356.09M353.235 267.317H441.294M353.235 267.317V356.09M441.294 267.317H529.353M441.294 267.317V356.09M529.353 267.317H617.412M529.353 267.317V356.09M617.412 267.317H705.471M617.412 267.317V356.09M705.471 267.317H793.529M705.471 267.317V356.09M793.529 267.317H881.588M793.529 267.317V356.09M881.588 267.317H969.647M881.588 267.317V356.09M969.647 267.317H1057.71M969.647 267.317V356.09M1057.71 267.317H1145.76M1057.71 267.317V356.09M1145.76 267.317H1233.82M1145.76 267.317V356.09M1233.82 267.317H1321.88M1233.82 267.317V356.09M1321.88 267.317H1409.94M1321.88 267.317V356.09M1409.94 267.317H1498M1409.94 267.317V356.09M1498 267.317V356.09M89.0588 356.09H1M89.0588 356.09H177.118M89.0588 356.09V444.862M1 356.09V444.862M177.118 356.09H265.176M177.118 356.09V444.862M265.176 356.09H353.235M265.176 356.09V444.862M353.235 356.09H441.294M353.235 356.09V444.862M441.294 356.09H529.353M441.294 356.09V444.862M529.353 356.09H617.412M529.353 356.09V444.862M617.412 356.09H705.471M617.412 356.09V444.862M705.471 356.09H793.529M705.471 356.09V444.862M793.529 356.09H881.588M793.529 356.09V444.862M881.588 356.09H969.647M881.588 356.09V444.862M969.647 356.09H1057.71M969.647 356.09V444.862M1057.71 356.09H1145.76M1057.71 356.09V444.862M1145.76 356.09H1233.82M1145.76 356.09V444.862M1233.82 356.09H1321.88M1233.82 356.09V444.862M1321.88 356.09H1409.94M1321.88 356.09V444.862M1409.94 356.09H1498M1409.94 356.09V444.862M1498 356.09V444.862M89.0588 444.862H1M89.0588 444.862H177.118M89.0588 444.862V533.635M1 444.862V533.635M177.118 444.862H265.176M177.118 444.862V533.635M265.176 444.862H353.235M265.176 444.862V533.635M353.235 444.862H441.294M353.235 444.862V533.635M441.294 444.862H529.353M441.294 444.862V533.635M529.353 444.862H617.412M529.353 444.862V533.635M617.412 444.862H705.471M617.412 444.862V533.635M705.471 444.862H793.529M705.471 444.862V533.635M793.529 444.862H881.588M793.529 444.862V533.635M881.588 444.862H969.647M881.588 444.862V533.635M969.647 444.862H1057.71M969.647 444.862V533.635M1057.71 444.862H1145.76M1057.71 444.862V533.635M1145.76 444.862H1233.82M1145.76 444.862V533.635M1233.82 444.862H1321.88M1233.82 444.862V533.635M1321.88 444.862H1409.94M1321.88 444.862V533.635M1409.94 444.862H1498M1409.94 444.862V533.635M1498 444.862V533.635M89.0588 533.635H1M89.0588 533.635H177.118M89.0588 533.635V622.407M1 533.635V622.407M177.118 533.635H265.176M177.118 533.635V622.407M265.176 533.635H353.235M265.176 533.635V622.407M353.235 533.635H441.294M353.235 533.635V622.407M441.294 533.635H529.353M441.294 533.635V622.407M529.353 533.635H617.412M529.353 533.635V622.407M617.412 533.635H705.471M617.412 533.635V622.407M705.471 533.635H793.529M705.471 533.635V622.407M793.529 533.635H881.588M793.529 533.635V622.407M881.588 533.635H969.647M881.588 533.635V622.407M969.647 533.635H1057.71M969.647 533.635V622.407M1057.71 533.635H1145.76M1057.71 533.635V622.407M1145.76 533.635H1233.82M1145.76 533.635V622.407M1233.82 533.635H1321.88M1233.82 533.635V622.407M1321.88 533.635H1409.94M1321.88 533.635V622.407M1409.94 533.635H1498M1409.94 533.635V622.407M1498 533.635V622.407M89.0588 622.407H1M89.0588 622.407H177.118M89.0588 622.407C89.0588 622.407 89.0588 676.512 89.0588 711.18M1 622.407V711.18M177.118 622.407H265.176M177.118 622.407V711.18M265.176 622.407H353.235M265.176 622.407V711.18M353.235 622.407H441.294M353.235 622.407V711.18M441.294 622.407H529.353M441.294 622.407V711.18M529.353 622.407H617.412M529.353 622.407V711.18M617.412 622.407H705.471M617.412 622.407V711.18M705.471 622.407H793.529M705.471 622.407V711.18M793.529 622.407H881.588M793.529 622.407V711.18M881.588 622.407H969.647M881.588 622.407V711.18M969.647 622.407H1057.71M969.647 622.407V711.18M1057.71 622.407H1145.76M1057.71 622.407V711.18M1145.76 622.407H1233.82M1145.76 622.407V711.18M1233.82 622.407H1321.88M1233.82 622.407V711.18M1321.88 622.407H1409.94M1321.88 622.407V711.18M1409.94 622.407H1498M1409.94 622.407V711.18M1498 622.407V711.18M89.0588 711.18C54.6697 711.18 1 711.18 1 711.18M89.0588 711.18C89.0588 745.848 89.0588 799.952 89.0588 799.952M89.0588 711.18C106.253 711.18 133.088 711.18 133.088 711.18H155.103H177.118M1 711.18V799.952M177.118 711.18H265.176M177.118 711.18V799.952M265.176 711.18H353.235M265.176 711.18V799.952M353.235 711.18H441.294M353.235 711.18V799.952M441.294 711.18H529.353M441.294 711.18V799.952M529.353 711.18H617.412M529.353 711.18V799.952M617.412 711.18H705.471M617.412 711.18V799.952M705.471 711.18H793.529M705.471 711.18V799.952M793.529 711.18H881.588M793.529 711.18V799.952M881.588 711.18H969.647M881.588 711.18V799.952M969.647 711.18H1057.71M969.647 711.18V799.952M1057.71 711.18H1145.76M1057.71 711.18V799.952M1145.76 711.18H1233.82M1145.76 711.18V799.952M1233.82 711.18H1321.88M1233.82 711.18V799.952M1321.88 711.18H1409.94M1321.88 711.18V799.952M1409.94 711.18H1498M1409.94 711.18V799.952M1498 711.18V799.952M89.0588 799.952H1M89.0588 799.952H177.118M89.0588 799.952V888.725M1 799.952V888.725M177.118 799.952H265.176M177.118 799.952V888.725M265.176 799.952H353.235M265.176 799.952V888.725M353.235 799.952H441.294M353.235 799.952V888.725M441.294 799.952H529.353M441.294 799.952V888.725M529.353 799.952H617.412M529.353 799.952V888.725M617.412 799.952H705.471M617.412 799.952V888.725M705.471 799.952H793.529M705.471 799.952V888.725M793.529 799.952H881.588M793.529 799.952V888.725M881.588 799.952H969.647M881.588 799.952V888.725M969.647 799.952H1057.71M969.647 799.952V888.725M1057.71 799.952H1145.76M1057.71 799.952V888.725M1145.76 799.952H1233.82M1145.76 799.952V888.725M1233.82 799.952H1321.88M1233.82 799.952V888.725M1321.88 799.952H1409.94M1321.88 799.952V888.725M1409.94 799.952H1498M1409.94 799.952V888.725M1498 799.952V888.725M89.0588 888.725H1M89.0588 888.725H177.118M89.0588 888.725V977.497M1 888.725V977.497M177.118 888.725H265.176M177.118 888.725V977.497M265.176 888.725H353.235M265.176 888.725V977.497M353.235 888.725H441.294M353.235 888.725V977.497M441.294 888.725H529.353M441.294 888.725V977.497M529.353 888.725H617.412M529.353 888.725V977.497M617.412 888.725H705.471M617.412 888.725V977.497M705.471 888.725H793.529M705.471 888.725V977.497M793.529 888.725H881.588M793.529 888.725V977.497M881.588 888.725H969.647M881.588 888.725V977.497M969.647 888.725H1057.71M969.647 888.725V977.497M1057.71 888.725H1145.76M1057.71 888.725V977.497M1145.76 888.725H1233.82M1145.76 888.725V977.497M1233.82 888.725H1321.88M1233.82 888.725V977.497M1321.88 888.725H1409.94M1321.88 888.725V977.497M1409.94 888.725H1498M1409.94 888.725V977.497M1498 888.725V977.497M89.0588 977.497H1M89.0588 977.497H177.118M89.0588 977.497V1066.27M1 977.497V1066.27H89.0588M177.118 977.497H265.176M177.118 977.497V1066.27M265.176 977.497H353.235M265.176 977.497V1066.27M353.235 977.497H441.294M353.235 977.497V1066.27M441.294 977.497H529.353M441.294 977.497V1066.27M529.353 977.497H617.412M529.353 977.497V1066.27M617.412 977.497H705.471M617.412 977.497V1066.27M705.471 977.497H793.529M705.471 977.497V1066.27M793.529 977.497H881.588M793.529 977.497V1066.27M881.588 977.497H969.647M881.588 977.497V1066.27M969.647 977.497H1057.71M969.647 977.497V1066.27M1057.71 977.497H1145.76M1057.71 977.497V1066.27M1145.76 977.497H1233.82M1145.76 977.497V1066.27M1233.82 977.497H1321.88M1233.82 977.497V1066.27M1321.88 977.497H1409.94M1321.88 977.497V1066.27M1409.94 977.497H1498M1409.94 977.497V1066.27M1498 977.497V1066.27H1409.94M89.0588 1066.27H177.118M177.118 1066.27H265.176M265.176 1066.27H353.235M353.235 1066.27H441.294M441.294 1066.27H529.353M529.353 1066.27H617.412M617.412 1066.27H705.471M705.471 1066.27H793.529M793.529 1066.27H881.588M881.588 1066.27H969.647M969.647 1066.27H1057.71M1057.71 1066.27H1145.76M1145.76 1066.27H1233.82M1233.82 1066.27H1321.88M1321.88 1066.27H1409.94" stroke="url(#paint7_radial_0_1)" stroke-opacity="0.15"/>
<defs>
<linearGradient id="paint0_linear_0_1" x1="452.101" y1="172.26" x2="342.309" y2="299.6" gradientUnits="userSpaceOnUse">
<stop stop-color="#FDFDFD" stop-opacity="0.6"/>
<stop offset="1" stop-color="#FDFDFD" stop-opacity="0"/>
</linearGradient>
<linearGradient id="paint1_linear_0_1" x1="451.452" y1="774.465" x2="827.102" y2="1081.01" gradientUnits="userSpaceOnUse">
<stop stop-color="#FDFDFD" stop-opacity="0.6"/>
<stop offset="1" stop-color="#FDFDFD" stop-opacity="0"/>
</linearGradient>
<linearGradient id="paint2_linear_0_1" x1="980.577" y1="438.578" x2="1202.68" y2="607.981" gradientUnits="userSpaceOnUse">
<stop stop-color="#FDFDFD" stop-opacity="0.74"/>
<stop offset="1" stop-color="#FDFDFD" stop-opacity="0"/>
<stop offset="1" stop-color="#FDFDFD" stop-opacity="0.59"/>
</linearGradient>
<linearGradient id="paint3_linear_0_1" x1="749.494" y1="445.209" x2="749.494" y2="534.675" gradientUnits="userSpaceOnUse">
<stop stop-color="white" stop-opacity="0"/>
<stop offset="1" stop-color="white"/>
</linearGradient>
<linearGradient id="paint4_linear_0_1" x1="808.271" y1="529.473" x2="726.087" y2="471.216" gradientUnits="userSpaceOnUse">
<stop stop-color="white" stop-opacity="0.63"/>
<stop offset="1" stop-color="white" stop-opacity="0"/>
</linearGradient>
<linearGradient id="paint5_linear_0_1" x1="565.122" y1="338.653" x2="565.122" y2="429.702" gradientUnits="userSpaceOnUse">
<stop stop-color="white" stop-opacity="0"/>
<stop offset="1" stop-color="white"/>
</linearGradient>
<linearGradient id="paint6_linear_0_1" x1="1189.79" y1="266.179" x2="1189.79" y2="357.228" gradientUnits="userSpaceOnUse">
<stop stop-color="white" stop-opacity="0"/>
<stop offset="1" stop-color="white"/>
</linearGradient>
<radialGradient id="paint7_radial_0_1" cx="0" cy="0" r="1" gradientUnits="userSpaceOnUse" gradientTransform="translate(749.5 562.088) rotate(90) scale(503.044 749.629)">
<stop stop-color="white"/>
<stop offset="1" stop-color="white" stop-opacity="0"/>
</radialGradient>
</defs>
</svg>
