<svg width="1440" height="1024" viewBox="0 0 1440 1024" fill="none" xmlns="http://www.w3.org/2000/svg">
<path d="M423 170V213V256H338M507.5 170V256H592.5V340.5" stroke="url(#paint0_linear_12_1432)" stroke-opacity="0.4"/>
<path d="M508 767V810V853H423M592.5 767V853H677.5V937.5" stroke="url(#paint1_linear_12_1432)" stroke-opacity="0.61"/>
<path d="M931 426V469V512H846M1015.5 426V512H1100.5V596.5" stroke="url(#paint2_linear_12_1432)" stroke-opacity="0.62"/>
<path d="M762 426.5H678L677.5 511.5L762 512V426.5Z" fill="url(#paint3_linear_12_1432)" fill-opacity="0.04" stroke="url(#paint4_linear_12_1432)" stroke-opacity="0.53"/>
<path d="M585.673 324.573H498.856V412.094H585.673V324.573Z" fill="url(#paint5_linear_12_1432)" fill-opacity="0.02"/>
<path d="M1186.14 254.906H1099.33V342.427H1186.14V254.906Z" fill="url(#paint6_linear_12_1432)" fill-opacity="0.03"/>
<path d="M84.6471 0H0V85.3333M84.6471 0V85.3333M84.6471 0H169.294M84.6471 85.3333H0M84.6471 85.3333H169.294M84.6471 85.3333V170.667M0 85.3333V170.667M169.294 0V85.3333M169.294 0H253.941M169.294 85.3333H253.941M169.294 85.3333V170.667M253.941 0V85.3333M253.941 0H338.588M253.941 85.3333H338.588M253.941 85.3333V170.667M338.588 0V85.3333M338.588 0H423.235M338.588 85.3333H423.235M338.588 85.3333V170.667M423.235 0V85.3333M423.235 0H507.882M423.235 85.3333H507.882M423.235 85.3333V170.667M507.882 0V85.3333M507.882 0H592.529M507.882 85.3333H592.529M507.882 85.3333V170.667M592.529 0V85.3333M592.529 0H677.176M592.529 85.3333H677.176M592.529 85.3333V170.667M677.176 0V85.3333M677.176 0H761.823M677.176 85.3333H761.823M677.176 85.3333V170.667M761.823 0V85.3333M761.823 0H846.471M761.823 85.3333H846.471M761.823 85.3333V170.667M846.471 0V85.3333M846.471 0H931.118M846.471 85.3333H931.118M846.471 85.3333V170.667M931.118 0V85.3333M931.118 0H1015.76M931.118 85.3333H1015.76M931.118 85.3333V170.667M1015.76 0V85.3333M1015.76 0H1100.41M1015.76 85.3333H1100.41M1015.76 85.3333V170.667M1100.41 0V85.3333M1100.41 0H1185.06M1100.41 85.3333H1185.06M1100.41 85.3333V170.667M1185.06 0V85.3333M1185.06 0H1269.71M1185.06 85.3333H1269.71M1185.06 85.3333V170.667M1269.71 0V85.3333M1269.71 0H1354.35M1269.71 85.3333H1354.35M1269.71 85.3333V170.667M1354.35 0V85.3333M1354.35 0H1439V85.3333M1354.35 85.3333H1439M1354.35 85.3333V170.667M1439 85.3333V170.667M84.6471 170.667H0M84.6471 170.667H169.294M84.6471 170.667V256M0 170.667V256M169.294 170.667H253.941M169.294 170.667V256M253.941 170.667H338.588M253.941 170.667V256M338.588 170.667H423.235M338.588 170.667V256M423.235 170.667H507.882M423.235 170.667V256M507.882 170.667H592.529M507.882 170.667V256M592.529 170.667H677.176M592.529 170.667V256M677.176 170.667H761.823M677.176 170.667V256M761.823 170.667H846.471M761.823 170.667V256M846.471 170.667H931.118M846.471 170.667V256M931.118 170.667H1015.76M931.118 170.667V256M1015.76 170.667H1100.41M1015.76 170.667V256M1100.41 170.667H1185.06M1100.41 170.667V256M1185.06 170.667H1269.71M1185.06 170.667V256M1269.71 170.667H1354.35M1269.71 170.667V256M1354.35 170.667H1439M1354.35 170.667V256M1439 170.667V256M84.6471 256H0M84.6471 256H169.294M84.6471 256V341.333M0 256V341.333M169.294 256H253.941M169.294 256V341.333M253.941 256H338.588M253.941 256V341.333M338.588 256H423.235M338.588 256V341.333M423.235 256H507.882M423.235 256V341.333M507.882 256H592.529M507.882 256V341.333M592.529 256H677.176M592.529 256V341.333M677.176 256H761.823M677.176 256V341.333M761.823 256H846.471M761.823 256V341.333M846.471 256H931.118M846.471 256V341.333M931.118 256H1015.76M931.118 256V341.333M1015.76 256H1100.41M1015.76 256V341.333M1100.41 256H1185.06M1100.41 256V341.333M1185.06 256H1269.71M1185.06 256V341.333M1269.71 256H1354.35M1269.71 256V341.333M1354.35 256H1439M1354.35 256V341.333M1439 256V341.333M84.6471 341.333H0M84.6471 341.333H169.294M84.6471 341.333V426.667M0 341.333V426.667M169.294 341.333H253.941M169.294 341.333V426.667M253.941 341.333H338.588M253.941 341.333V426.667M338.588 341.333H423.235M338.588 341.333V426.667M423.235 341.333H507.882M423.235 341.333V426.667M507.882 341.333H592.529M507.882 341.333V426.667M592.529 341.333H677.176M592.529 341.333V426.667M677.176 341.333H761.823M677.176 341.333V426.667M761.823 341.333H846.471M761.823 341.333V426.667M846.471 341.333H931.118M846.471 341.333V426.667M931.118 341.333H1015.76M931.118 341.333V426.667M1015.76 341.333H1100.41M1015.76 341.333V426.667M1100.41 341.333H1185.06M1100.41 341.333V426.667M1185.06 341.333H1269.71M1185.06 341.333V426.667M1269.71 341.333H1354.35M1269.71 341.333V426.667M1354.35 341.333H1439M1354.35 341.333V426.667M1439 341.333V426.667M84.6471 426.667H0M84.6471 426.667H169.294M84.6471 426.667V512M0 426.667V512M169.294 426.667H253.941M169.294 426.667V512M253.941 426.667H338.588M253.941 426.667V512M338.588 426.667H423.235M338.588 426.667V512M423.235 426.667H507.882M423.235 426.667V512M507.882 426.667H592.529M507.882 426.667V512M592.529 426.667H677.176M592.529 426.667V512M677.176 426.667H761.823M677.176 426.667V512M761.823 426.667H846.471M761.823 426.667V512M846.471 426.667H931.118M846.471 426.667V512M931.118 426.667H1015.76M931.118 426.667V512M1015.76 426.667H1100.41M1015.76 426.667V512M1100.41 426.667H1185.06M1100.41 426.667V512M1185.06 426.667H1269.71M1185.06 426.667V512M1269.71 426.667H1354.35M1269.71 426.667V512M1354.35 426.667H1439M1354.35 426.667V512M1439 426.667V512M84.6471 512H0M84.6471 512H169.294M84.6471 512V597.333M0 512V597.333M169.294 512H253.941M169.294 512V597.333M253.941 512H338.588M253.941 512V597.333M338.588 512H423.235M338.588 512V597.333M423.235 512H507.882M423.235 512V597.333M507.882 512H592.529M507.882 512V597.333M592.529 512H677.176M592.529 512V597.333M677.176 512H761.823M677.176 512V597.333M761.823 512H846.471M761.823 512V597.333M846.471 512H931.118M846.471 512V597.333M931.118 512H1015.76M931.118 512V597.333M1015.76 512H1100.41M1015.76 512V597.333M1100.41 512H1185.06M1100.41 512V597.333M1185.06 512H1269.71M1185.06 512V597.333M1269.71 512H1354.35M1269.71 512V597.333M1354.35 512H1439M1354.35 512V597.333M1439 512V597.333M84.6471 597.333H0M84.6471 597.333H169.294M84.6471 597.333C84.6471 597.333 84.6471 649.342 84.6471 682.667M0 597.333V682.667M169.294 597.333H253.941M169.294 597.333V682.667M253.941 597.333H338.588M253.941 597.333V682.667M338.588 597.333H423.235M338.588 597.333V682.667M423.235 597.333H507.882M423.235 597.333V682.667M507.882 597.333H592.529M507.882 597.333V682.667M592.529 597.333H677.176M592.529 597.333V682.667M677.176 597.333H761.823M677.176 597.333V682.667M761.823 597.333H846.471M761.823 597.333V682.667M846.471 597.333H931.118M846.471 597.333V682.667M931.118 597.333H1015.76M931.118 597.333V682.667M1015.76 597.333H1100.41M1015.76 597.333V682.667M1100.41 597.333H1185.06M1100.41 597.333V682.667M1185.06 597.333H1269.71M1185.06 597.333V682.667M1269.71 597.333H1354.35M1269.71 597.333V682.667M1354.35 597.333H1439M1354.35 597.333V682.667M1439 597.333V682.667M84.6471 682.667C51.5903 682.667 0 682.667 0 682.667M84.6471 682.667C84.6471 715.991 84.6471 768 84.6471 768M84.6471 682.667C101.175 682.667 126.971 682.667 126.971 682.667H148.132H169.294M0 682.667V768M169.294 682.667H253.941M169.294 682.667V768M253.941 682.667H338.588M253.941 682.667V768M338.588 682.667H423.235M338.588 682.667V768M423.235 682.667H507.882M423.235 682.667V768M507.882 682.667H592.529M507.882 682.667V768M592.529 682.667H677.176M592.529 682.667V768M677.176 682.667H761.823M677.176 682.667V768M761.823 682.667H846.471M761.823 682.667V768M846.471 682.667H931.118M846.471 682.667V768M931.118 682.667H1015.76M931.118 682.667V768M1015.76 682.667H1100.41M1015.76 682.667V768M1100.41 682.667H1185.06M1100.41 682.667V768M1185.06 682.667H1269.71M1185.06 682.667V768M1269.71 682.667H1354.35M1269.71 682.667V768M1354.35 682.667H1439M1354.35 682.667V768M1439 682.667V768M84.6471 768H0M84.6471 768H169.294M84.6471 768V853.333M0 768V853.333M169.294 768H253.941M169.294 768V853.333M253.941 768H338.588M253.941 768V853.333M338.588 768H423.235M338.588 768V853.333M423.235 768H507.882M423.235 768V853.333M507.882 768H592.529M507.882 768V853.333M592.529 768H677.176M592.529 768V853.333M677.176 768H761.823M677.176 768V853.333M761.823 768H846.471M761.823 768V853.333M846.471 768H931.118M846.471 768V853.333M931.118 768H1015.76M931.118 768V853.333M1015.76 768H1100.41M1015.76 768V853.333M1100.41 768H1185.06M1100.41 768V853.333M1185.06 768H1269.71M1185.06 768V853.333M1269.71 768H1354.35M1269.71 768V853.333M1354.35 768H1439M1354.35 768V853.333M1439 768V853.333M84.6471 853.333H0M84.6471 853.333H169.294M84.6471 853.333V938.667M0 853.333V938.667M169.294 853.333H253.941M169.294 853.333V938.667M253.941 853.333H338.588M253.941 853.333V938.667M338.588 853.333H423.235M338.588 853.333V938.667M423.235 853.333H507.882M423.235 853.333V938.667M507.882 853.333H592.529M507.882 853.333V938.667M592.529 853.333H677.176M592.529 853.333V938.667M677.176 853.333H761.823M677.176 853.333V938.667M761.823 853.333H846.471M761.823 853.333V938.667M846.471 853.333H931.118M846.471 853.333V938.667M931.118 853.333H1015.76M931.118 853.333V938.667M1015.76 853.333H1100.41M1015.76 853.333V938.667M1100.41 853.333H1185.06M1100.41 853.333V938.667M1185.06 853.333H1269.71M1185.06 853.333V938.667M1269.71 853.333H1354.35M1269.71 853.333V938.667M1354.35 853.333H1439M1354.35 853.333V938.667M1439 853.333V938.667M84.6471 938.667H0M84.6471 938.667H169.294M84.6471 938.667V1024M0 938.667V1024H84.6471M169.294 938.667H253.941M169.294 938.667V1024M253.941 938.667H338.588M253.941 938.667V1024M338.588 938.667H423.235M338.588 938.667V1024M423.235 938.667H507.882M423.235 938.667V1024M507.882 938.667H592.529M507.882 938.667V1024M592.529 938.667H677.176M592.529 938.667V1024M677.176 938.667H761.823M677.176 938.667V1024M761.823 938.667H846.471M761.823 938.667V1024M846.471 938.667H931.118M846.471 938.667V1024M931.118 938.667H1015.76M931.118 938.667V1024M1015.76 938.667H1100.41M1015.76 938.667V1024M1100.41 938.667H1185.06M1100.41 938.667V1024M1185.06 938.667H1269.71M1185.06 938.667V1024M1269.71 938.667H1354.35M1269.71 938.667V1024M1354.35 938.667H1439M1354.35 938.667V1024M1439 938.667V1024H1354.35M84.6471 1024H169.294M169.294 1024H253.941M253.941 1024H338.588M338.588 1024H423.235M423.235 1024H507.882M507.882 1024H592.529M592.529 1024H677.176M677.176 1024H761.823M761.823 1024H846.471M846.471 1024H931.118M931.118 1024H1015.76M1015.76 1024H1100.41M1100.41 1024H1185.06M1185.06 1024H1269.71M1269.71 1024H1354.35" stroke="url(#paint7_radial_12_1432)" stroke-opacity="0.15"/>
<defs>
<linearGradient id="paint0_linear_12_1432" x1="433.625" y1="164.625" x2="328.086" y2="287.031" gradientUnits="userSpaceOnUse">
<stop stop-color="#FDFDFD" stop-opacity="0.6"/>
<stop offset="1" stop-color="#FDFDFD" stop-opacity="0"/>
</linearGradient>
<linearGradient id="paint1_linear_12_1432" x1="433" y1="743.5" x2="794.097" y2="1038.17" gradientUnits="userSpaceOnUse">
<stop stop-color="#FDFDFD" stop-opacity="0.6"/>
<stop offset="1" stop-color="#FDFDFD" stop-opacity="0"/>
</linearGradient>

<linearGradient id="paint2_linear_12_1432" x1="941.625" y1="420.625" x2="1155.12" y2="583.465" gradientUnits="userSpaceOnUse">
<stop stop-color="#FDFDFD" stop-opacity="0.74"/>
<stop offset="1" stop-color="#FDFDFD" stop-opacity="0"/>
<stop offset="1" stop-color="#FDFDFD" stop-opacity="0.59"/>
</linearGradient>
<linearGradient id="paint3_linear_12_1432" x1="719.5" y1="427" x2="719.5" y2="513" gradientUnits="userSpaceOnUse">
<stop stop-color="white" stop-opacity="0"/>
<stop offset="1" stop-color="white"/>
</linearGradient>
<linearGradient id="paint4_linear_12_1432" x1="776" y1="508" x2="697" y2="452" gradientUnits="userSpaceOnUse">
<stop stop-color="white" stop-opacity="0.63"/>
<stop offset="1" stop-color="white" stop-opacity="0"/>
</linearGradient>
<linearGradient id="paint5_linear_12_1432" x1="542.265" y1="324.573" x2="542.265" y2="412.094" gradientUnits="userSpaceOnUse">
<stop stop-color="white" stop-opacity="0"/>
<stop offset="1" stop-color="white"/>
</linearGradient>
<linearGradient id="paint6_linear_12_1432" x1="1142.74" y1="254.906" x2="1142.74" y2="342.427" gradientUnits="userSpaceOnUse">
<stop stop-color="white" stop-opacity="0"/>
<stop offset="1" stop-color="white"/>
</linearGradient>
<radialGradient id="paint7_radial_12_1432" cx="0" cy="0" r="1" gradientUnits="userSpaceOnUse" gradientTransform="translate(719.5 539.35) rotate(90) scale(483.556 720.585)">
<stop stop-color="white"/>
<stop offset="1" stop-color="white" stop-opacity="0"/>
</radialGradient>
</defs>
</svg>
