<svg width="690" height="633" viewBox="0 0 690 633" fill="none" xmlns="http://www.w3.org/2000/svg">
<rect x="1" y="1" width="688" height="88" fill="#0DF908" fill-opacity="0.09" stroke="#2D4E04" stroke-width="2" stroke-dasharray="13 13"/>
<path d="M219.187 41.65C218.647 40.61 217.897 39.83 216.937 39.31C215.977 38.77 214.867 38.5 213.607 38.5C212.227 38.5 210.997 38.81 209.917 39.43C208.837 40.05 207.987 40.93 207.367 42.07C206.767 43.21 206.467 44.53 206.467 46.03C206.467 47.53 206.767 48.86 207.367 50.02C207.987 51.16 208.837 52.04 209.917 52.66C210.997 53.28 212.227 53.59 213.607 53.59C215.467 53.59 216.977 53.07 218.137 52.03C219.297 50.99 220.007 49.58 220.267 47.8H212.437V45.07H223.927V47.74C223.707 49.36 223.127 50.85 222.187 52.21C221.267 53.57 220.057 54.66 218.557 55.48C217.077 56.28 215.427 56.68 213.607 56.68C211.647 56.68 209.857 56.23 208.237 55.33C206.617 54.41 205.327 53.14 204.367 51.52C203.427 49.9 202.957 48.07 202.957 46.03C202.957 43.99 203.427 42.16 204.367 40.54C205.327 38.92 206.617 37.66 208.237 36.76C209.877 35.84 211.667 35.38 213.607 35.38C215.827 35.38 217.797 35.93 219.517 37.03C221.257 38.11 222.517 39.65 223.297 41.65H219.187ZM242.45 47.83C242.45 48.45 242.41 49.01 242.33 49.51H229.7C229.8 50.83 230.29 51.89 231.17 52.69C232.05 53.49 233.13 53.89 234.41 53.89C236.25 53.89 237.55 53.12 238.31 51.58H242C241.5 53.1 240.59 54.35 239.27 55.33C237.97 56.29 236.35 56.77 234.41 56.77C232.83 56.77 231.41 56.42 230.15 55.72C228.91 55 227.93 54 227.21 52.72C226.51 51.42 226.16 49.92 226.16 48.22C226.16 46.52 226.5 45.03 227.18 43.75C227.88 42.45 228.85 41.45 230.09 40.75C231.35 40.05 232.79 39.7 234.41 39.7C235.97 39.7 237.36 40.04 238.58 40.72C239.8 41.4 240.75 42.36 241.43 43.6C242.11 44.82 242.45 46.23 242.45 47.83ZM238.88 46.75C238.86 45.49 238.41 44.48 237.53 43.72C236.65 42.96 235.56 42.58 234.26 42.58C233.08 42.58 232.07 42.96 231.23 43.72C230.39 44.46 229.89 45.47 229.73 46.75H238.88ZM249.805 42.76V51.91C249.805 52.53 249.945 52.98 250.225 53.26C250.525 53.52 251.025 53.65 251.725 53.65H253.825V56.5H251.125C249.585 56.5 248.405 56.14 247.585 55.42C246.765 54.7 246.355 53.53 246.355 51.91V42.76H244.405V39.97H246.355V35.86H249.805V39.97H253.825V42.76H249.805ZM270.77 56.77C269.47 56.77 268.3 56.54 267.26 56.08C266.24 55.6 265.43 54.96 264.83 54.16C264.23 53.34 263.91 52.43 263.87 51.43H267.41C267.47 52.13 267.8 52.72 268.4 53.2C269.02 53.66 269.79 53.89 270.71 53.89C271.67 53.89 272.41 53.71 272.93 53.35C273.47 52.97 273.74 52.49 273.74 51.91C273.74 51.29 273.44 50.83 272.84 50.53C272.26 50.23 271.33 49.9 270.05 49.54C268.81 49.2 267.8 48.87 267.02 48.55C266.24 48.23 265.56 47.74 264.98 47.08C264.42 46.42 264.14 45.55 264.14 44.47C264.14 43.59 264.4 42.79 264.92 42.07C265.44 41.33 266.18 40.75 267.14 40.33C268.12 39.91 269.24 39.7 270.5 39.7C272.38 39.7 273.89 40.18 275.03 41.14C276.19 42.08 276.81 43.37 276.89 45.01H273.47C273.41 44.27 273.11 43.68 272.57 43.24C272.03 42.8 271.3 42.58 270.38 42.58C269.48 42.58 268.79 42.75 268.31 43.09C267.83 43.43 267.59 43.88 267.59 44.44C267.59 44.88 267.75 45.25 268.07 45.55C268.39 45.85 268.78 46.09 269.24 46.27C269.7 46.43 270.38 46.64 271.28 46.9C272.48 47.22 273.46 47.55 274.22 47.89C275 48.21 275.67 48.69 276.23 49.33C276.79 49.97 277.08 50.82 277.1 51.88C277.1 52.82 276.84 53.66 276.32 54.4C275.8 55.14 275.06 55.72 274.1 56.14C273.16 56.56 272.05 56.77 270.77 56.77ZM284.786 42.76V51.91C284.786 52.53 284.926 52.98 285.206 53.26C285.506 53.52 286.006 53.65 286.706 53.65H288.806V56.5H286.106C284.566 56.5 283.386 56.14 282.566 55.42C281.746 54.7 281.336 53.53 281.336 51.91V42.76H279.386V39.97H281.336V35.86H284.786V39.97H288.806V42.76H284.786ZM290.818 48.16C290.818 46.5 291.158 45.03 291.838 43.75C292.538 42.47 293.478 41.48 294.658 40.78C295.858 40.06 297.178 39.7 298.618 39.7C299.918 39.7 301.048 39.96 302.008 40.48C302.988 40.98 303.768 41.61 304.348 42.37V39.97H307.798V56.5H304.348V54.04C303.768 54.82 302.978 55.47 301.978 55.99C300.978 56.51 299.838 56.77 298.558 56.77C297.138 56.77 295.838 56.41 294.658 55.69C293.478 54.95 292.538 53.93 291.838 52.63C291.158 51.31 290.818 49.82 290.818 48.16ZM304.348 48.22C304.348 47.08 304.108 46.09 303.628 45.25C303.168 44.41 302.558 43.77 301.798 43.33C301.038 42.89 300.218 42.67 299.338 42.67C298.458 42.67 297.638 42.89 296.878 43.33C296.118 43.75 295.498 44.38 295.018 45.22C294.558 46.04 294.328 47.02 294.328 48.16C294.328 49.3 294.558 50.3 295.018 51.16C295.498 52.02 296.118 52.68 296.878 53.14C297.658 53.58 298.478 53.8 299.338 53.8C300.218 53.8 301.038 53.58 301.798 53.14C302.558 52.7 303.168 52.06 303.628 51.22C304.108 50.36 304.348 49.36 304.348 48.22ZM315.71 42.37C316.21 41.53 316.87 40.88 317.69 40.42C318.53 39.94 319.52 39.7 320.66 39.7V43.24H319.79C318.45 43.24 317.43 43.58 316.73 44.26C316.05 44.94 315.71 46.12 315.71 47.8V56.5H312.29V39.97H315.71V42.37ZM327.794 42.76V51.91C327.794 52.53 327.934 52.98 328.214 53.26C328.514 53.52 329.014 53.65 329.714 53.65H331.814V56.5H329.114C327.574 56.5 326.394 56.14 325.574 55.42C324.754 54.7 324.344 53.53 324.344 51.91V42.76H322.394V39.97H324.344V35.86H327.794V39.97H331.814V42.76H327.794ZM350.116 47.83C350.116 48.45 350.076 49.01 349.996 49.51H337.366C337.466 50.83 337.956 51.89 338.836 52.69C339.716 53.49 340.796 53.89 342.076 53.89C343.916 53.89 345.216 53.12 345.976 51.58H349.666C349.166 53.1 348.256 54.35 346.936 55.33C345.636 56.29 344.016 56.77 342.076 56.77C340.496 56.77 339.076 56.42 337.816 55.72C336.576 55 335.596 54 334.876 52.72C334.176 51.42 333.826 49.92 333.826 48.22C333.826 46.52 334.166 45.03 334.846 43.75C335.546 42.45 336.516 41.45 337.756 40.75C339.016 40.05 340.456 39.7 342.076 39.7C343.636 39.7 345.026 40.04 346.246 40.72C347.466 41.4 348.416 42.36 349.096 43.6C349.776 44.82 350.116 46.23 350.116 47.83ZM346.546 46.75C346.526 45.49 346.076 44.48 345.196 43.72C344.316 42.96 343.226 42.58 341.926 42.58C340.746 42.58 339.736 42.96 338.896 43.72C338.056 44.46 337.556 45.47 337.396 46.75H346.546ZM352.341 48.16C352.341 46.5 352.681 45.03 353.361 43.75C354.061 42.47 355.001 41.48 356.181 40.78C357.381 40.06 358.711 39.7 360.171 39.7C361.251 39.7 362.311 39.94 363.351 40.42C364.411 40.88 365.251 41.5 365.871 42.28V34.3H369.321V56.5H365.871V54.01C365.311 54.81 364.531 55.47 363.531 55.99C362.551 56.51 361.421 56.77 360.141 56.77C358.701 56.77 357.381 56.41 356.181 55.69C355.001 54.95 354.061 53.93 353.361 52.63C352.681 51.31 352.341 49.82 352.341 48.16ZM365.871 48.22C365.871 47.08 365.631 46.09 365.151 45.25C364.691 44.41 364.081 43.77 363.321 43.33C362.561 42.89 361.741 42.67 360.861 42.67C359.981 42.67 359.161 42.89 358.401 43.33C357.641 43.75 357.021 44.38 356.541 45.22C356.081 46.04 355.851 47.02 355.851 48.16C355.851 49.3 356.081 50.3 356.541 51.16C357.021 52.02 357.641 52.68 358.401 53.14C359.181 53.58 360.001 53.8 360.861 53.8C361.741 53.8 362.561 53.58 363.321 53.14C364.081 52.7 364.691 52.06 365.151 51.22C365.631 50.36 365.871 49.36 365.871 48.22ZM403.806 39.97L398.676 56.5H395.076L391.746 44.29L388.416 56.5H384.816L379.656 39.97H383.136L386.586 53.26L390.096 39.97H393.666L397.026 53.2L400.446 39.97H403.806ZM408.102 37.78C407.482 37.78 406.962 37.57 406.542 37.15C406.122 36.73 405.912 36.21 405.912 35.59C405.912 34.97 406.122 34.45 406.542 34.03C406.962 33.61 407.482 33.4 408.102 33.4C408.702 33.4 409.212 33.61 409.632 34.03C410.052 34.45 410.262 34.97 410.262 35.59C410.262 36.21 410.052 36.73 409.632 37.15C409.212 37.57 408.702 37.78 408.102 37.78ZM409.782 39.97V56.5H406.362V39.97H409.782ZM418.262 42.76V51.91C418.262 52.53 418.402 52.98 418.682 53.26C418.982 53.52 419.482 53.65 420.182 53.65H422.282V56.5H419.582C418.042 56.5 416.862 56.14 416.042 55.42C415.222 54.7 414.812 53.53 414.812 51.91V42.76H412.862V39.97H414.812V35.86H418.262V39.97H422.282V42.76H418.262ZM433.984 39.7C435.244 39.7 436.364 39.97 437.344 40.51C438.344 41.05 439.124 41.85 439.684 42.91C440.264 43.97 440.554 45.25 440.554 46.75V56.5H437.164V47.26C437.164 45.78 436.794 44.65 436.054 43.87C435.314 43.07 434.304 42.67 433.024 42.67C431.744 42.67 430.724 43.07 429.964 43.87C429.224 44.65 428.854 45.78 428.854 47.26V56.5H425.434V34.3H428.854V41.89C429.434 41.19 430.164 40.65 431.044 40.27C431.944 39.89 432.924 39.7 433.984 39.7ZM456.1 35.65V48.94C456.1 50.52 456.51 51.71 457.33 52.51C458.17 53.31 459.33 53.71 460.81 53.71C462.31 53.71 463.47 53.31 464.29 52.51C465.13 51.71 465.55 50.52 465.55 48.94V35.65H468.97V48.88C468.97 50.58 468.6 52.02 467.86 53.2C467.12 54.38 466.13 55.26 464.89 55.84C463.65 56.42 462.28 56.71 460.78 56.71C459.28 56.71 457.91 56.42 456.67 55.84C455.45 55.26 454.48 54.38 453.76 53.2C453.04 52.02 452.68 50.58 452.68 48.88V35.65H456.1ZM479.423 56.77C478.123 56.77 476.953 56.54 475.913 56.08C474.893 55.6 474.083 54.96 473.483 54.16C472.883 53.34 472.563 52.43 472.523 51.43H476.063C476.123 52.13 476.453 52.72 477.053 53.2C477.673 53.66 478.443 53.89 479.363 53.89C480.323 53.89 481.063 53.71 481.583 53.35C482.123 52.97 482.393 52.49 482.393 51.91C482.393 51.29 482.093 50.83 481.493 50.53C480.913 50.23 479.983 49.9 478.703 49.54C477.463 49.2 476.453 48.87 475.673 48.55C474.893 48.23 474.213 47.74 473.633 47.08C473.073 46.42 472.793 45.55 472.793 44.47C472.793 43.59 473.053 42.79 473.573 42.07C474.093 41.33 474.833 40.75 475.793 40.33C476.773 39.91 477.893 39.7 479.153 39.7C481.033 39.7 482.543 40.18 483.683 41.14C484.843 42.08 485.463 43.37 485.543 45.01H482.123C482.063 44.27 481.763 43.68 481.223 43.24C480.683 42.8 479.953 42.58 479.033 42.58C478.133 42.58 477.443 42.75 476.963 43.09C476.483 43.43 476.243 43.88 476.243 44.44C476.243 44.88 476.403 45.25 476.723 45.55C477.043 45.85 477.433 46.09 477.893 46.27C478.353 46.43 479.033 46.64 479.933 46.9C481.133 47.22 482.113 47.55 482.873 47.89C483.653 48.21 484.323 48.69 484.883 49.33C485.443 49.97 485.733 50.82 485.753 51.88C485.753 52.82 485.493 53.66 484.973 54.4C484.453 55.14 483.713 55.72 482.753 56.14C481.813 56.56 480.703 56.77 479.423 56.77Z" fill="#4B4F55"/>
<rect x="1" y="182" width="688" height="88" fill="#0DF908" fill-opacity="0.09" stroke="#2D4E04" stroke-width="2" stroke-dasharray="13 13"/>
<path d="M231.065 216.15L224.885 237H221.015L216.635 221.22L211.985 237L208.145 237.03L202.235 216.15H205.865L210.185 233.13L214.865 216.15H218.705L223.055 233.04L227.405 216.15H231.065ZM249.036 228.33C249.036 228.95 248.996 229.51 248.916 230.01H236.286C236.386 231.33 236.876 232.39 237.756 233.19C238.636 233.99 239.716 234.39 240.996 234.39C242.836 234.39 244.136 233.62 244.896 232.08H248.586C248.086 233.6 247.176 234.85 245.856 235.83C244.556 236.79 242.936 237.27 240.996 237.27C239.416 237.27 237.996 236.92 236.736 236.22C235.496 235.5 234.516 234.5 233.796 233.22C233.096 231.92 232.746 230.42 232.746 228.72C232.746 227.02 233.086 225.53 233.766 224.25C234.466 222.95 235.436 221.95 236.676 221.25C237.936 220.55 239.376 220.2 240.996 220.2C242.556 220.2 243.946 220.54 245.166 221.22C246.386 221.9 247.336 222.86 248.016 224.1C248.696 225.32 249.036 226.73 249.036 228.33ZM245.466 227.25C245.446 225.99 244.996 224.98 244.116 224.22C243.236 223.46 242.146 223.08 240.846 223.08C239.666 223.08 238.656 223.46 237.816 224.22C236.976 224.96 236.476 225.97 236.316 227.25H245.466ZM259.054 228.66C259.054 227 259.394 225.53 260.074 224.25C260.774 222.97 261.714 221.98 262.894 221.28C264.094 220.56 265.414 220.2 266.854 220.2C268.154 220.2 269.284 220.46 270.244 220.98C271.224 221.48 272.004 222.11 272.584 222.87V220.47H276.034V237H272.584V234.54C272.004 235.32 271.214 235.97 270.214 236.49C269.214 237.01 268.074 237.27 266.794 237.27C265.374 237.27 264.074 236.91 262.894 236.19C261.714 235.45 260.774 234.43 260.074 233.13C259.394 231.81 259.054 230.32 259.054 228.66ZM272.584 228.72C272.584 227.58 272.344 226.59 271.864 225.75C271.404 224.91 270.794 224.27 270.034 223.83C269.274 223.39 268.454 223.17 267.574 223.17C266.694 223.17 265.874 223.39 265.114 223.83C264.354 224.25 263.734 224.88 263.254 225.72C262.794 226.54 262.564 227.52 262.564 228.66C262.564 229.8 262.794 230.8 263.254 231.66C263.734 232.52 264.354 233.18 265.114 233.64C265.894 234.08 266.714 234.3 267.574 234.3C268.454 234.3 269.274 234.08 270.034 233.64C270.794 233.2 271.404 232.56 271.864 231.72C272.344 230.86 272.584 229.86 272.584 228.72ZM286.526 237.27C285.226 237.27 284.056 237.04 283.016 236.58C281.996 236.1 281.186 235.46 280.586 234.66C279.986 233.84 279.666 232.93 279.626 231.93H283.166C283.226 232.63 283.556 233.22 284.156 233.7C284.776 234.16 285.546 234.39 286.466 234.39C287.426 234.39 288.166 234.21 288.686 233.85C289.226 233.47 289.496 232.99 289.496 232.41C289.496 231.79 289.196 231.33 288.596 231.03C288.016 230.73 287.086 230.4 285.806 230.04C284.566 229.7 283.556 229.37 282.776 229.05C281.996 228.73 281.316 228.24 280.736 227.58C280.176 226.92 279.896 226.05 279.896 224.97C279.896 224.09 280.156 223.29 280.676 222.57C281.196 221.83 281.936 221.25 282.896 220.83C283.876 220.41 284.996 220.2 286.256 220.2C288.136 220.2 289.646 220.68 290.786 221.64C291.946 222.58 292.566 223.87 292.646 225.51H289.226C289.166 224.77 288.866 224.18 288.326 223.74C287.786 223.3 287.056 223.08 286.136 223.08C285.236 223.08 284.546 223.25 284.066 223.59C283.586 223.93 283.346 224.38 283.346 224.94C283.346 225.38 283.506 225.75 283.826 226.05C284.146 226.35 284.536 226.59 284.996 226.77C285.456 226.93 286.136 227.14 287.036 227.4C288.236 227.72 289.216 228.05 289.976 228.39C290.756 228.71 291.426 229.19 291.986 229.83C292.546 230.47 292.836 231.32 292.856 232.38C292.856 233.32 292.596 234.16 292.076 234.9C291.556 235.64 290.816 236.22 289.856 236.64C288.916 237.06 287.806 237.27 286.526 237.27ZM303.092 228.75L310.712 237H306.092L299.972 229.89V237H296.552V214.8H299.972V227.7L305.972 220.47H310.712L303.092 228.75ZM326.956 237.27C325.656 237.27 324.486 237.04 323.446 236.58C322.426 236.1 321.616 235.46 321.016 234.66C320.416 233.84 320.096 232.93 320.056 231.93H323.596C323.656 232.63 323.986 233.22 324.586 233.7C325.206 234.16 325.976 234.39 326.896 234.39C327.856 234.39 328.596 234.21 329.116 233.85C329.656 233.47 329.926 232.99 329.926 232.41C329.926 231.79 329.626 231.33 329.026 231.03C328.446 230.73 327.516 230.4 326.236 230.04C324.996 229.7 323.986 229.37 323.206 229.05C322.426 228.73 321.746 228.24 321.166 227.58C320.606 226.92 320.326 226.05 320.326 224.97C320.326 224.09 320.586 223.29 321.106 222.57C321.626 221.83 322.366 221.25 323.326 220.83C324.306 220.41 325.426 220.2 326.686 220.2C328.566 220.2 330.076 220.68 331.216 221.64C332.376 222.58 332.996 223.87 333.076 225.51H329.656C329.596 224.77 329.296 224.18 328.756 223.74C328.216 223.3 327.486 223.08 326.566 223.08C325.666 223.08 324.976 223.25 324.496 223.59C324.016 223.93 323.776 224.38 323.776 224.94C323.776 225.38 323.936 225.75 324.256 226.05C324.576 226.35 324.966 226.59 325.426 226.77C325.886 226.93 326.566 227.14 327.466 227.4C328.666 227.72 329.646 228.05 330.406 228.39C331.186 228.71 331.856 229.19 332.416 229.83C332.976 230.47 333.266 231.32 333.286 232.38C333.286 233.32 333.026 234.16 332.506 234.9C331.986 235.64 331.246 236.22 330.286 236.64C329.346 237.06 328.236 237.27 326.956 237.27ZM344.151 237.27C342.591 237.27 341.181 236.92 339.921 236.22C338.661 235.5 337.671 234.5 336.951 233.22C336.231 231.92 335.871 230.42 335.871 228.72C335.871 227.04 336.241 225.55 336.981 224.25C337.721 222.95 338.731 221.95 340.011 221.25C341.291 220.55 342.721 220.2 344.301 220.2C345.881 220.2 347.311 220.55 348.591 221.25C349.871 221.95 350.881 222.95 351.621 224.25C352.361 225.55 352.731 227.04 352.731 228.72C352.731 230.4 352.351 231.89 351.591 233.19C350.831 234.49 349.791 235.5 348.471 236.22C347.171 236.92 345.731 237.27 344.151 237.27ZM344.151 234.3C345.031 234.3 345.851 234.09 346.611 233.67C347.391 233.25 348.021 232.62 348.501 231.78C348.981 230.94 349.221 229.92 349.221 228.72C349.221 227.52 348.991 226.51 348.531 225.69C348.071 224.85 347.461 224.22 346.701 223.8C345.941 223.38 345.121 223.17 344.241 223.17C343.361 223.17 342.541 223.38 341.781 223.8C341.041 224.22 340.451 224.85 340.011 225.69C339.571 226.51 339.351 227.52 339.351 228.72C339.351 230.5 339.801 231.88 340.701 232.86C341.621 233.82 342.771 234.3 344.151 234.3ZM376.122 220.2C377.422 220.2 378.582 220.47 379.602 221.01C380.642 221.55 381.452 222.35 382.032 223.41C382.632 224.47 382.932 225.75 382.932 227.25V237H379.542V227.76C379.542 226.28 379.172 225.15 378.432 224.37C377.692 223.57 376.682 223.17 375.402 223.17C374.122 223.17 373.102 223.57 372.342 224.37C371.602 225.15 371.232 226.28 371.232 227.76V237H367.842V227.76C367.842 226.28 367.472 225.15 366.732 224.37C365.992 223.57 364.982 223.17 363.702 223.17C362.422 223.17 361.402 223.57 360.642 224.37C359.902 225.15 359.532 226.28 359.532 227.76V237H356.112V220.47H359.532V222.36C360.092 221.68 360.802 221.15 361.662 220.77C362.522 220.39 363.442 220.2 364.422 220.2C365.742 220.2 366.922 220.48 367.962 221.04C369.002 221.6 369.802 222.41 370.362 223.47C370.862 222.47 371.642 221.68 372.702 221.1C373.762 220.5 374.902 220.2 376.122 220.2ZM402.434 228.33C402.434 228.95 402.394 229.51 402.314 230.01H389.684C389.784 231.33 390.274 232.39 391.154 233.19C392.034 233.99 393.114 234.39 394.394 234.39C396.234 234.39 397.534 233.62 398.294 232.08H401.984C401.484 233.6 400.574 234.85 399.254 235.83C397.954 236.79 396.334 237.27 394.394 237.27C392.814 237.27 391.394 236.92 390.134 236.22C388.894 235.5 387.914 234.5 387.194 233.22C386.494 231.92 386.144 230.42 386.144 228.72C386.144 227.02 386.484 225.53 387.164 224.25C387.864 222.95 388.834 221.95 390.074 221.25C391.334 220.55 392.774 220.2 394.394 220.2C395.954 220.2 397.344 220.54 398.564 221.22C399.784 221.9 400.734 222.86 401.414 224.1C402.094 225.32 402.434 226.73 402.434 228.33ZM398.864 227.25C398.844 225.99 398.394 224.98 397.514 224.22C396.634 223.46 395.544 223.08 394.244 223.08C393.064 223.08 392.054 223.46 391.214 224.22C390.374 224.96 389.874 225.97 389.714 227.25H398.864ZM412.453 228.66C412.453 227 412.793 225.53 413.473 224.25C414.173 222.97 415.113 221.98 416.293 221.28C417.493 220.56 418.823 220.2 420.283 220.2C421.563 220.2 422.693 220.46 423.673 220.98C424.673 221.5 425.443 222.13 425.983 222.87V220.47H429.433V244.86H425.983V234.6C425.443 235.34 424.663 235.97 423.643 236.49C422.623 237.01 421.463 237.27 420.163 237.27C418.743 237.27 417.443 236.91 416.263 236.19C415.103 235.45 414.173 234.43 413.473 233.13C412.793 231.81 412.453 230.32 412.453 228.66ZM425.983 228.72C425.983 227.58 425.743 226.59 425.263 225.75C424.803 224.91 424.193 224.27 423.433 223.83C422.673 223.39 421.853 223.17 420.973 223.17C420.093 223.17 419.273 223.39 418.513 223.83C417.753 224.25 417.133 224.88 416.653 225.72C416.193 226.54 415.963 227.52 415.963 228.66C415.963 229.8 416.193 230.8 416.653 231.66C417.133 232.52 417.753 233.18 418.513 233.64C419.293 234.08 420.113 234.3 420.973 234.3C421.853 234.3 422.673 234.08 423.433 233.64C424.193 233.2 424.803 232.56 425.263 231.72C425.743 230.86 425.983 229.86 425.983 228.72ZM448.895 220.47V237H445.475V235.05C444.935 235.73 444.225 236.27 443.345 236.67C442.485 237.05 441.565 237.24 440.585 237.24C439.285 237.24 438.115 236.97 437.075 236.43C436.055 235.89 435.245 235.09 434.645 234.03C434.065 232.97 433.775 231.69 433.775 230.19V220.47H437.165V229.68C437.165 231.16 437.535 232.3 438.275 233.1C439.015 233.88 440.025 234.27 441.305 234.27C442.585 234.27 443.595 233.88 444.335 233.1C445.095 232.3 445.475 231.16 445.475 229.68V220.47H448.895ZM455.147 218.28C454.527 218.28 454.007 218.07 453.587 217.65C453.167 217.23 452.957 216.71 452.957 216.09C452.957 215.47 453.167 214.95 453.587 214.53C454.007 214.11 454.527 213.9 455.147 213.9C455.747 213.9 456.257 214.11 456.677 214.53C457.097 214.95 457.307 215.47 457.307 216.09C457.307 216.71 457.097 217.23 456.677 217.65C456.257 218.07 455.747 218.28 455.147 218.28ZM456.827 220.47V237H453.407V220.47H456.827ZM464.347 234.21H471.847V237H460.387V234.21L467.917 223.26H460.387V220.47H471.847V223.26L464.347 234.21ZM478.468 234.21H485.968V237H474.508V234.21L482.038 223.26H474.508V220.47H485.968V223.26L478.468 234.21ZM495.56 237.27C494.26 237.27 493.09 237.04 492.05 236.58C491.03 236.1 490.22 235.46 489.62 234.66C489.02 233.84 488.7 232.93 488.66 231.93H492.2C492.26 232.63 492.59 233.22 493.19 233.7C493.81 234.16 494.58 234.39 495.5 234.39C496.46 234.39 497.2 234.21 497.72 233.85C498.26 233.47 498.53 232.99 498.53 232.41C498.53 231.79 498.23 231.33 497.63 231.03C497.05 230.73 496.12 230.4 494.84 230.04C493.6 229.7 492.59 229.37 491.81 229.05C491.03 228.73 490.35 228.24 489.77 227.58C489.21 226.92 488.93 226.05 488.93 224.97C488.93 224.09 489.19 223.29 489.71 222.57C490.23 221.83 490.97 221.25 491.93 220.83C492.91 220.41 494.03 220.2 495.29 220.2C497.17 220.2 498.68 220.68 499.82 221.64C500.98 222.58 501.6 223.87 501.68 225.51H498.26C498.2 224.77 497.9 224.18 497.36 223.74C496.82 223.3 496.09 223.08 495.17 223.08C494.27 223.08 493.58 223.25 493.1 223.59C492.62 223.93 492.38 224.38 492.38 224.94C492.38 225.38 492.54 225.75 492.86 226.05C493.18 226.35 493.57 226.59 494.03 226.77C494.49 226.93 495.17 227.14 496.07 227.4C497.27 227.72 498.25 228.05 499.01 228.39C499.79 228.71 500.46 229.19 501.02 229.83C501.58 230.47 501.87 231.32 501.89 232.38C501.89 233.32 501.63 234.16 501.11 234.9C500.59 235.64 499.85 236.22 498.89 236.64C497.95 237.06 496.84 237.27 495.56 237.27Z" fill="#4B4F55"/>
<rect x="1" y="363" width="688" height="88" fill="#0DF908" fill-opacity="0.09" stroke="#2D4E04" stroke-width="2" stroke-dasharray="13 13"/>
<path d="M135.764 408.03C135.764 405.99 136.234 404.16 137.174 402.54C138.134 400.92 139.424 399.66 141.044 398.76C142.684 397.84 144.474 397.38 146.414 397.38C148.634 397.38 150.604 397.93 152.324 399.03C154.064 400.11 155.324 401.65 156.104 403.65H151.994C151.454 402.55 150.704 401.73 149.744 401.19C148.784 400.65 147.674 400.38 146.414 400.38C145.034 400.38 143.804 400.69 142.724 401.31C141.644 401.93 140.794 402.82 140.174 403.98C139.574 405.14 139.274 406.49 139.274 408.03C139.274 409.57 139.574 410.92 140.174 412.08C140.794 413.24 141.644 414.14 142.724 414.78C143.804 415.4 145.034 415.71 146.414 415.71C147.674 415.71 148.784 415.44 149.744 414.9C150.704 414.36 151.454 413.54 151.994 412.44H156.104C155.324 414.44 154.064 415.98 152.324 417.06C150.604 418.14 148.634 418.68 146.414 418.68C144.454 418.68 142.664 418.23 141.044 417.33C139.424 416.41 138.134 415.14 137.174 413.52C136.234 411.9 135.764 410.07 135.764 408.03ZM167.277 418.77C165.717 418.77 164.307 418.42 163.047 417.72C161.787 417 160.797 416 160.077 414.72C159.357 413.42 158.997 411.92 158.997 410.22C158.997 408.54 159.367 407.05 160.107 405.75C160.847 404.45 161.857 403.45 163.137 402.75C164.417 402.05 165.847 401.7 167.427 401.7C169.007 401.7 170.437 402.05 171.717 402.75C172.997 403.45 174.007 404.45 174.747 405.75C175.487 407.05 175.857 408.54 175.857 410.22C175.857 411.9 175.477 413.39 174.717 414.69C173.957 415.99 172.917 417 171.597 417.72C170.297 418.42 168.857 418.77 167.277 418.77ZM167.277 415.8C168.157 415.8 168.977 415.59 169.737 415.17C170.517 414.75 171.147 414.12 171.627 413.28C172.107 412.44 172.347 411.42 172.347 410.22C172.347 409.02 172.117 408.01 171.657 407.19C171.197 406.35 170.587 405.72 169.827 405.3C169.067 404.88 168.247 404.67 167.367 404.67C166.487 404.67 165.667 404.88 164.907 405.3C164.167 405.72 163.577 406.35 163.137 407.19C162.697 408.01 162.477 409.02 162.477 410.22C162.477 412 162.927 413.38 163.827 414.36C164.747 415.32 165.897 415.8 167.277 415.8ZM187.578 401.7C188.878 401.7 190.038 401.97 191.058 402.51C192.098 403.05 192.908 403.85 193.488 404.91C194.068 405.97 194.358 407.25 194.358 408.75V418.5H190.968V409.26C190.968 407.78 190.598 406.65 189.858 405.87C189.118 405.07 188.108 404.67 186.828 404.67C185.548 404.67 184.528 405.07 183.768 405.87C183.028 406.65 182.658 407.78 182.658 409.26V418.5H179.238V401.97H182.658V403.86C183.218 403.18 183.928 402.65 184.788 402.27C185.668 401.89 186.598 401.7 187.578 401.7ZM202.711 404.76V413.91C202.711 414.53 202.851 414.98 203.131 415.26C203.431 415.52 203.931 415.65 204.631 415.65H206.731V418.5H204.031C202.491 418.5 201.311 418.14 200.491 417.42C199.671 416.7 199.261 415.53 199.261 413.91V404.76H197.311V401.97H199.261V397.86H202.711V401.97H206.731V404.76H202.711ZM213.303 404.37C213.803 403.53 214.463 402.88 215.283 402.42C216.123 401.94 217.113 401.7 218.253 401.7V405.24H217.383C216.043 405.24 215.023 405.58 214.323 406.26C213.643 406.94 213.303 408.12 213.303 409.8V418.5H209.883V401.97H213.303V404.37ZM220.256 410.16C220.256 408.5 220.596 407.03 221.276 405.75C221.976 404.47 222.916 403.48 224.096 402.78C225.296 402.06 226.616 401.7 228.056 401.7C229.356 401.7 230.486 401.96 231.446 402.48C232.426 402.98 233.206 403.61 233.786 404.37V401.97H237.236V418.5H233.786V416.04C233.206 416.82 232.416 417.47 231.416 417.99C230.416 418.51 229.276 418.77 227.996 418.77C226.576 418.77 225.276 418.41 224.096 417.69C222.916 416.95 221.976 415.93 221.276 414.63C220.596 413.31 220.256 411.82 220.256 410.16ZM233.786 410.22C233.786 409.08 233.546 408.09 233.066 407.25C232.606 406.41 231.996 405.77 231.236 405.33C230.476 404.89 229.656 404.67 228.776 404.67C227.896 404.67 227.076 404.89 226.316 405.33C225.556 405.75 224.936 406.38 224.456 407.22C223.996 408.04 223.766 409.02 223.766 410.16C223.766 411.3 223.996 412.3 224.456 413.16C224.936 414.02 225.556 414.68 226.316 415.14C227.096 415.58 227.916 415.8 228.776 415.8C229.656 415.8 230.476 415.58 231.236 415.14C231.996 414.7 232.606 414.06 233.066 413.22C233.546 412.36 233.786 411.36 233.786 410.22ZM240.589 410.22C240.589 408.52 240.929 407.03 241.609 405.75C242.309 404.45 243.269 403.45 244.489 402.75C245.709 402.05 247.109 401.7 248.689 401.7C250.689 401.7 252.339 402.18 253.639 403.14C254.959 404.08 255.849 405.43 256.309 407.19H252.619C252.319 406.37 251.839 405.73 251.179 405.27C250.519 404.81 249.689 404.58 248.689 404.58C247.289 404.58 246.169 405.08 245.329 406.08C244.509 407.06 244.099 408.44 244.099 410.22C244.099 412 244.509 413.39 245.329 414.39C246.169 415.39 247.289 415.89 248.689 415.89C250.669 415.89 251.979 415.02 252.619 413.28H256.309C255.829 414.96 254.929 416.3 253.609 417.3C252.289 418.28 250.649 418.77 248.689 418.77C247.109 418.77 245.709 418.42 244.489 417.72C243.269 417 242.309 416 241.609 414.72C240.929 413.42 240.589 411.92 240.589 410.22ZM263.707 404.76V413.91C263.707 414.53 263.847 414.98 264.127 415.26C264.427 415.52 264.927 415.65 265.627 415.65H267.727V418.5H265.027C263.487 418.5 262.307 418.14 261.487 417.42C260.667 416.7 260.257 415.53 260.257 413.91V404.76H258.307V401.97H260.257V397.86H263.707V401.97H267.727V404.76H263.707ZM282.062 397.65V410.94C282.062 412.52 282.472 413.71 283.292 414.51C284.132 415.31 285.292 415.71 286.772 415.71C288.272 415.71 289.432 415.31 290.252 414.51C291.092 413.71 291.512 412.52 291.512 410.94V397.65H294.932V410.88C294.932 412.58 294.562 414.02 293.822 415.2C293.082 416.38 292.092 417.26 290.852 417.84C289.612 418.42 288.242 418.71 286.742 418.71C285.242 418.71 283.872 418.42 282.632 417.84C281.412 417.26 280.442 416.38 279.722 415.2C279.002 414.02 278.642 412.58 278.642 410.88V397.65H282.062ZM305.385 418.77C304.085 418.77 302.915 418.54 301.875 418.08C300.855 417.6 300.045 416.96 299.445 416.16C298.845 415.34 298.525 414.43 298.485 413.43H302.025C302.085 414.13 302.415 414.72 303.015 415.2C303.635 415.66 304.405 415.89 305.325 415.89C306.285 415.89 307.025 415.71 307.545 415.35C308.085 414.97 308.355 414.49 308.355 413.91C308.355 413.29 308.055 412.83 307.455 412.53C306.875 412.23 305.945 411.9 304.665 411.54C303.425 411.2 302.415 410.87 301.635 410.55C300.855 410.23 300.175 409.74 299.595 409.08C299.035 408.42 298.755 407.55 298.755 406.47C298.755 405.59 299.015 404.79 299.535 404.07C300.055 403.33 300.795 402.75 301.755 402.33C302.735 401.91 303.855 401.7 305.115 401.7C306.995 401.7 308.505 402.18 309.645 403.14C310.805 404.08 311.425 405.37 311.505 407.01H308.085C308.025 406.27 307.725 405.68 307.185 405.24C306.645 404.8 305.915 404.58 304.995 404.58C304.095 404.58 303.405 404.75 302.925 405.09C302.445 405.43 302.205 405.88 302.205 406.44C302.205 406.88 302.365 407.25 302.685 407.55C303.005 407.85 303.395 408.09 303.855 408.27C304.315 408.43 304.995 408.64 305.895 408.9C307.095 409.22 308.075 409.55 308.835 409.89C309.615 410.21 310.285 410.69 310.845 411.33C311.405 411.97 311.695 412.82 311.715 413.88C311.715 414.82 311.455 415.66 310.935 416.4C310.415 417.14 309.675 417.72 308.715 418.14C307.775 418.56 306.665 418.77 305.385 418.77ZM330.373 418.77C328.813 418.77 327.403 418.42 326.143 417.72C324.883 417 323.893 416 323.173 414.72C322.453 413.42 322.093 411.92 322.093 410.22C322.093 408.54 322.463 407.05 323.203 405.75C323.943 404.45 324.953 403.45 326.233 402.75C327.513 402.05 328.943 401.7 330.523 401.7C332.103 401.7 333.533 402.05 334.813 402.75C336.093 403.45 337.103 404.45 337.843 405.75C338.583 407.05 338.953 408.54 338.953 410.22C338.953 411.9 338.573 413.39 337.813 414.69C337.053 415.99 336.013 417 334.693 417.72C333.393 418.42 331.953 418.77 330.373 418.77ZM330.373 415.8C331.253 415.8 332.073 415.59 332.833 415.17C333.613 414.75 334.243 414.12 334.723 413.28C335.203 412.44 335.443 411.42 335.443 410.22C335.443 409.02 335.213 408.01 334.753 407.19C334.293 406.35 333.683 405.72 332.923 405.3C332.163 404.88 331.343 404.67 330.463 404.67C329.583 404.67 328.763 404.88 328.003 405.3C327.263 405.72 326.673 406.35 326.233 407.19C325.793 408.01 325.573 409.02 325.573 410.22C325.573 412 326.023 413.38 326.923 414.36C327.843 415.32 328.993 415.8 330.373 415.8ZM345.754 404.37C346.254 403.53 346.914 402.88 347.734 402.42C348.574 401.94 349.564 401.7 350.704 401.7V405.24H349.834C348.494 405.24 347.474 405.58 346.774 406.26C346.094 406.94 345.754 408.12 345.754 409.8V418.5H342.334V401.97H345.754V404.37ZM378.291 397.65V418.5H374.871V409.38H365.061V418.5H361.641V397.65H365.061V406.59H374.871V397.65H378.291ZM384.533 399.78C383.913 399.78 383.393 399.57 382.973 399.15C382.553 398.73 382.343 398.21 382.343 397.59C382.343 396.97 382.553 396.45 382.973 396.03C383.393 395.61 383.913 395.4 384.533 395.4C385.133 395.4 385.643 395.61 386.063 396.03C386.483 396.45 386.693 396.97 386.693 397.59C386.693 398.21 386.483 398.73 386.063 399.15C385.643 399.57 385.133 399.78 384.533 399.78ZM386.213 401.97V418.5H382.793V401.97H386.213ZM394.123 404.37C394.623 403.53 395.283 402.88 396.103 402.42C396.943 401.94 397.933 401.7 399.073 401.7V405.24H398.203C396.863 405.24 395.843 405.58 395.143 406.26C394.463 406.94 394.123 408.12 394.123 409.8V418.5H390.703V401.97H394.123V404.37ZM417.367 409.83C417.367 410.45 417.327 411.01 417.247 411.51H404.617C404.717 412.83 405.207 413.89 406.087 414.69C406.967 415.49 408.047 415.89 409.327 415.89C411.167 415.89 412.467 415.12 413.227 413.58H416.917C416.417 415.1 415.507 416.35 414.187 417.33C412.887 418.29 411.267 418.77 409.327 418.77C407.747 418.77 406.327 418.42 405.067 417.72C403.827 417 402.847 416 402.127 414.72C401.427 413.42 401.077 411.92 401.077 410.22C401.077 408.52 401.417 407.03 402.097 405.75C402.797 404.45 403.767 403.45 405.007 402.75C406.267 402.05 407.707 401.7 409.327 401.7C410.887 401.7 412.277 402.04 413.497 402.72C414.717 403.4 415.667 404.36 416.347 405.6C417.027 406.82 417.367 408.23 417.367 409.83ZM413.797 408.75C413.777 407.49 413.327 406.48 412.447 405.72C411.567 404.96 410.477 404.58 409.177 404.58C407.997 404.58 406.987 404.96 406.147 405.72C405.307 406.46 404.807 407.47 404.647 408.75H413.797ZM435.695 418.77C434.135 418.77 432.725 418.42 431.465 417.72C430.205 417 429.215 416 428.495 414.72C427.775 413.42 427.415 411.92 427.415 410.22C427.415 408.54 427.785 407.05 428.525 405.75C429.265 404.45 430.275 403.45 431.555 402.75C432.835 402.05 434.265 401.7 435.845 401.7C437.425 401.7 438.855 402.05 440.135 402.75C441.415 403.45 442.425 404.45 443.165 405.75C443.905 407.05 444.275 408.54 444.275 410.22C444.275 411.9 443.895 413.39 443.135 414.69C442.375 415.99 441.335 417 440.015 417.72C438.715 418.42 437.275 418.77 435.695 418.77ZM435.695 415.8C436.575 415.8 437.395 415.59 438.155 415.17C438.935 414.75 439.565 414.12 440.045 413.28C440.525 412.44 440.765 411.42 440.765 410.22C440.765 409.02 440.535 408.01 440.075 407.19C439.615 406.35 439.005 405.72 438.245 405.3C437.485 404.88 436.665 404.67 435.785 404.67C434.905 404.67 434.085 404.88 433.325 405.3C432.585 405.72 431.995 406.35 431.555 407.19C431.115 408.01 430.895 409.02 430.895 410.22C430.895 412 431.345 413.38 432.245 414.36C433.165 415.32 434.315 415.8 435.695 415.8ZM455.996 401.7C457.296 401.7 458.456 401.97 459.476 402.51C460.516 403.05 461.326 403.85 461.906 404.91C462.486 405.97 462.776 407.25 462.776 408.75V418.5H459.386V409.26C459.386 407.78 459.016 406.65 458.276 405.87C457.536 405.07 456.526 404.67 455.246 404.67C453.966 404.67 452.946 405.07 452.186 405.87C451.446 406.65 451.076 407.78 451.076 409.26V418.5H447.656V401.97H451.076V403.86C451.636 403.18 452.346 402.65 453.206 402.27C454.086 401.89 455.016 401.7 455.996 401.7ZM487.202 397.65V400.44H478.352V406.59H485.252V409.38H478.352V418.5H474.932V397.65H487.202ZM492.111 399.78C491.491 399.78 490.971 399.57 490.551 399.15C490.131 398.73 489.921 398.21 489.921 397.59C489.921 396.97 490.131 396.45 490.551 396.03C490.971 395.61 491.491 395.4 492.111 395.4C492.711 395.4 493.221 395.61 493.641 396.03C494.061 396.45 494.271 396.97 494.271 397.59C494.271 398.21 494.061 398.73 493.641 399.15C493.221 399.57 492.711 399.78 492.111 399.78ZM493.791 401.97V418.5H490.371V401.97H493.791ZM504.671 415.44L509.351 401.97H512.981L506.681 418.5H502.601L496.331 401.97H499.991L504.671 415.44ZM530.716 409.83C530.716 410.45 530.676 411.01 530.596 411.51H517.966C518.066 412.83 518.556 413.89 519.436 414.69C520.316 415.49 521.396 415.89 522.676 415.89C524.516 415.89 525.816 415.12 526.576 413.58H530.266C529.766 415.1 528.856 416.35 527.536 417.33C526.236 418.29 524.616 418.77 522.676 418.77C521.096 418.77 519.676 418.42 518.416 417.72C517.176 417 516.196 416 515.476 414.72C514.776 413.42 514.426 411.92 514.426 410.22C514.426 408.52 514.766 407.03 515.446 405.75C516.146 404.45 517.116 403.45 518.356 402.75C519.616 402.05 521.056 401.7 522.676 401.7C524.236 401.7 525.626 402.04 526.846 402.72C528.066 403.4 529.016 404.36 529.696 405.6C530.376 406.82 530.716 408.23 530.716 409.83ZM527.146 408.75C527.126 407.49 526.676 406.48 525.796 405.72C524.916 404.96 523.826 404.58 522.526 404.58C521.346 404.58 520.336 404.96 519.496 405.72C518.656 406.46 518.156 407.47 517.996 408.75H527.146ZM537.502 404.37C538.002 403.53 538.662 402.88 539.482 402.42C540.322 401.94 541.312 401.7 542.452 401.7V405.24H541.582C540.242 405.24 539.222 405.58 538.522 406.26C537.842 406.94 537.502 408.12 537.502 409.8V418.5H534.082V401.97H537.502V404.37Z" fill="#4B4F55"/>
<rect x="1" y="544" width="688" height="88" fill="#0DF908" fill-opacity="0.09" stroke="#2D4E04" stroke-width="2" stroke-dasharray="13 13"/>
<path d="M246.414 578.65C248.634 578.65 250.574 579.08 252.234 579.94C253.914 580.78 255.204 582 256.104 583.6C257.024 585.18 257.484 587.03 257.484 589.15C257.484 591.27 257.024 593.11 256.104 594.67C255.204 596.23 253.914 597.43 252.234 598.27C250.574 599.09 248.634 599.5 246.414 599.5H239.604V578.65H246.414ZM246.414 596.71C248.854 596.71 250.724 596.05 252.024 594.73C253.324 593.41 253.974 591.55 253.974 589.15C253.974 586.73 253.324 584.84 252.024 583.48C250.724 582.12 248.854 581.44 246.414 581.44H243.024V596.71H246.414ZM276.024 590.83C276.024 591.45 275.984 592.01 275.904 592.51H263.274C263.374 593.83 263.864 594.89 264.744 595.69C265.624 596.49 266.704 596.89 267.984 596.89C269.824 596.89 271.124 596.12 271.884 594.58H275.574C275.074 596.1 274.164 597.35 272.844 598.33C271.544 599.29 269.924 599.77 267.984 599.77C266.404 599.77 264.984 599.42 263.724 598.72C262.484 598 261.504 597 260.784 595.72C260.084 594.42 259.734 592.92 259.734 591.22C259.734 589.52 260.074 588.03 260.754 586.75C261.454 585.45 262.424 584.45 263.664 583.75C264.924 583.05 266.364 582.7 267.984 582.7C269.544 582.7 270.934 583.04 272.154 583.72C273.374 584.4 274.324 585.36 275.004 586.6C275.684 587.82 276.024 589.23 276.024 590.83ZM272.454 589.75C272.434 588.49 271.984 587.48 271.104 586.72C270.224 585.96 269.134 585.58 267.834 585.58C266.654 585.58 265.644 585.96 264.804 586.72C263.964 587.46 263.464 588.47 263.304 589.75H272.454ZM285.78 596.44L290.46 582.97H294.09L287.79 599.5H283.71L277.44 582.97H281.1L285.78 596.44ZM311.825 590.83C311.825 591.45 311.785 592.01 311.705 592.51H299.075C299.175 593.83 299.665 594.89 300.545 595.69C301.425 596.49 302.505 596.89 303.785 596.89C305.625 596.89 306.925 596.12 307.685 594.58H311.375C310.875 596.1 309.965 597.35 308.645 598.33C307.345 599.29 305.725 599.77 303.785 599.77C302.205 599.77 300.785 599.42 299.525 598.72C298.285 598 297.305 597 296.585 595.72C295.885 594.42 295.535 592.92 295.535 591.22C295.535 589.52 295.875 588.03 296.555 586.75C297.255 585.45 298.225 584.45 299.465 583.75C300.725 583.05 302.165 582.7 303.785 582.7C305.345 582.7 306.735 583.04 307.955 583.72C309.175 584.4 310.125 585.36 310.805 586.6C311.485 587.82 311.825 589.23 311.825 590.83ZM308.255 589.75C308.235 588.49 307.785 587.48 306.905 586.72C306.025 585.96 304.935 585.58 303.635 585.58C302.455 585.58 301.445 585.96 300.605 586.72C299.765 587.46 299.265 588.47 299.105 589.75H308.255ZM318.61 577.3V599.5H315.19V577.3H318.61ZM330.271 599.77C328.711 599.77 327.301 599.42 326.041 598.72C324.781 598 323.791 597 323.071 595.72C322.351 594.42 321.991 592.92 321.991 591.22C321.991 589.54 322.361 588.05 323.101 586.75C323.841 585.45 324.851 584.45 326.131 583.75C327.411 583.05 328.841 582.7 330.421 582.7C332.001 582.7 333.431 583.05 334.711 583.75C335.991 584.45 337.001 585.45 337.741 586.75C338.481 588.05 338.851 589.54 338.851 591.22C338.851 592.9 338.471 594.39 337.711 595.69C336.951 596.99 335.911 598 334.591 598.72C333.291 599.42 331.851 599.77 330.271 599.77ZM330.271 596.8C331.151 596.8 331.971 596.59 332.731 596.17C333.511 595.75 334.141 595.12 334.621 594.28C335.101 593.44 335.341 592.42 335.341 591.22C335.341 590.02 335.111 589.01 334.651 588.19C334.191 587.35 333.581 586.72 332.821 586.3C332.061 585.88 331.241 585.67 330.361 585.67C329.481 585.67 328.661 585.88 327.901 586.3C327.161 586.72 326.571 587.35 326.131 588.19C325.691 589.01 325.471 590.02 325.471 591.22C325.471 593 325.921 594.38 326.821 595.36C327.741 596.32 328.891 596.8 330.271 596.8ZM345.651 585.4C346.231 584.64 347.021 584 348.021 583.48C349.021 582.96 350.151 582.7 351.411 582.7C352.851 582.7 354.161 583.06 355.341 583.78C356.541 584.48 357.481 585.47 358.161 586.75C358.841 588.03 359.181 589.5 359.181 591.16C359.181 592.82 358.841 594.31 358.161 595.63C357.481 596.93 356.541 597.95 355.341 598.69C354.161 599.41 352.851 599.77 351.411 599.77C350.151 599.77 349.031 599.52 348.051 599.02C347.071 598.5 346.271 597.86 345.651 597.1V607.36H342.231V582.97H345.651V585.4ZM355.701 591.16C355.701 590.02 355.461 589.04 354.981 588.22C354.521 587.38 353.901 586.75 353.121 586.33C352.361 585.89 351.541 585.67 350.661 585.67C349.801 585.67 348.981 585.89 348.201 586.33C347.441 586.77 346.821 587.41 346.341 588.25C345.881 589.09 345.651 590.08 345.651 591.22C345.651 592.36 345.881 593.36 346.341 594.22C346.821 595.06 347.441 595.7 348.201 596.14C348.981 596.58 349.801 596.8 350.661 596.8C351.541 596.8 352.361 596.58 353.121 596.14C353.901 595.68 354.521 595.02 354.981 594.16C355.461 593.3 355.701 592.3 355.701 591.16ZM382.573 582.7C383.873 582.7 385.033 582.97 386.053 583.51C387.093 584.05 387.903 584.85 388.483 585.91C389.083 586.97 389.383 588.25 389.383 589.75V599.5H385.993V590.26C385.993 588.78 385.623 587.65 384.883 586.87C384.143 586.07 383.133 585.67 381.853 585.67C380.573 585.67 379.553 586.07 378.793 586.87C378.053 587.65 377.683 588.78 377.683 590.26V599.5H374.293V590.26C374.293 588.78 373.923 587.65 373.183 586.87C372.443 586.07 371.433 585.67 370.153 585.67C368.873 585.67 367.853 586.07 367.093 586.87C366.353 587.65 365.983 588.78 365.983 590.26V599.5H362.563V582.97H365.983V584.86C366.543 584.18 367.253 583.65 368.113 583.27C368.973 582.89 369.893 582.7 370.873 582.7C372.193 582.7 373.373 582.98 374.413 583.54C375.453 584.1 376.253 584.91 376.813 585.97C377.313 584.97 378.093 584.18 379.153 583.6C380.213 583 381.353 582.7 382.573 582.7ZM408.885 590.83C408.885 591.45 408.845 592.01 408.765 592.51H396.135C396.235 593.83 396.725 594.89 397.605 595.69C398.485 596.49 399.565 596.89 400.845 596.89C402.685 596.89 403.985 596.12 404.745 594.58H408.435C407.935 596.1 407.025 597.35 405.705 598.33C404.405 599.29 402.785 599.77 400.845 599.77C399.265 599.77 397.845 599.42 396.585 598.72C395.345 598 394.365 597 393.645 595.72C392.945 594.42 392.595 592.92 392.595 591.22C392.595 589.52 392.935 588.03 393.615 586.75C394.315 585.45 395.285 584.45 396.525 583.75C397.785 583.05 399.225 582.7 400.845 582.7C402.405 582.7 403.795 583.04 405.015 583.72C406.235 584.4 407.185 585.36 407.865 586.6C408.545 587.82 408.885 589.23 408.885 590.83ZM405.315 589.75C405.295 588.49 404.845 587.48 403.965 586.72C403.085 585.96 401.995 585.58 400.695 585.58C399.515 585.58 398.505 585.96 397.665 586.72C396.825 587.46 396.325 588.47 396.165 589.75H405.315ZM420.591 582.7C421.891 582.7 423.051 582.97 424.071 583.51C425.111 584.05 425.921 584.85 426.501 585.91C427.081 586.97 427.371 588.25 427.371 589.75V599.5H423.981V590.26C423.981 588.78 423.611 587.65 422.871 586.87C422.131 586.07 421.121 585.67 419.841 585.67C418.561 585.67 417.541 586.07 416.781 586.87C416.041 587.65 415.671 588.78 415.671 590.26V599.5H412.251V582.97H415.671V584.86C416.231 584.18 416.941 583.65 417.801 583.27C418.681 582.89 419.611 582.7 420.591 582.7ZM435.723 585.76V594.91C435.723 595.53 435.863 595.98 436.143 596.26C436.443 596.52 436.943 596.65 437.643 596.65H439.743V599.5H437.043C435.503 599.5 434.323 599.14 433.503 598.42C432.683 597.7 432.273 596.53 432.273 594.91V585.76H430.323V582.97H432.273V578.86H435.723V582.97H439.743V585.76H435.723Z" fill="#4B4F55"/>
</svg>
